<svg width="28" height="36" viewBox="0 0 28 36" fill="none" xmlns="http://www.w3.org/2000/svg">
<circle cx="14" cy="12" r="11.5" stroke="black"/>
<circle cx="14" cy="12" r="8.5" stroke="black"/>
<path d="M4.45605 19C4.69209 19.3209 4.94351 19.6297 5.20996 19.9248L2.0498 29.79L5.99805 26.3389L7.24707 25.2471L7.62891 26.8613L8.83691 31.9648L11.5234 23.5752C11.8508 23.6452 12.1827 23.7038 12.5195 23.7461L8.69141 35.6943L6.65625 27.0918L0 32.9102L4.45605 19Z" fill="black"/>
<path d="M27.5088 32.5947L20.8525 26.7764L18.8164 35.3789L15 23.4668C15.3389 23.4338 15.673 23.3841 16.0029 23.3232L18.6719 31.6494L19.8789 26.5459L20.2617 24.9316L21.5107 26.0234L25.459 29.4746L22.3848 19.8809C22.6547 19.6 22.9109 19.3063 23.1523 19L27.5088 32.5947Z" fill="black"/>
</svg>
