<svg width="36" height="36" viewBox="0 0 36 36" fill="none" xmlns="http://www.w3.org/2000/svg">
<circle cx="18" cy="18" r="17.375" stroke="black" stroke-width="1.25"/>
<path d="M32 28.9522C30.255 27.7071 28.1002 26.7098 25.6818 26.0279C23.2633 25.3461 20.6376 24.9955 17.9825 25C15.3273 25.0046 12.7047 25.3641 10.2923 26.0542C7.87994 26.7443 5.73405 27.7489 4 29" stroke="black" stroke-width="1.25"/>
<path d="M4 7.04776C5.74504 8.29291 7.89975 9.29019 10.3182 9.97207C12.7367 10.6539 15.3624 11.0045 18.0175 11C20.6727 10.9954 23.2953 10.6359 25.7077 9.94582C28.1201 9.2557 30.266 8.25109 32 7" stroke="black" stroke-width="1.25"/>
<path d="M18 0.625C20.121 0.625 22.2092 2.36084 23.8047 5.55176C25.3814 8.70529 26.375 13.1054 26.375 18C26.375 22.8946 25.3814 27.2947 23.8047 30.4482C22.2092 33.6392 20.121 35.375 18 35.375C15.879 35.375 13.7908 33.6392 12.1953 30.4482C10.6186 27.2947 9.625 22.8946 9.625 18C9.625 13.1054 10.6186 8.70529 12.1953 5.55176C13.7908 2.36084 15.879 0.625 18 0.625Z" stroke="black" stroke-width="1.25"/>
<line x1="1" y1="18.375" x2="35" y2="18.375" stroke="black" stroke-width="1.25"/>
<line x1="17.625" y1="1" x2="17.625" y2="36" stroke="black" stroke-width="1.25"/>
</svg>
