<svg width="36" height="28" viewBox="0 0 36 28" fill="none" xmlns="http://www.w3.org/2000/svg">
<path d="M5.30664 7.5H34.8115C35.1217 7.50028 35.3569 7.78028 35.3037 8.08594L32.1729 26.0859C32.1311 26.3252 31.9235 26.4998 31.6807 26.5H2.18848C1.87835 26.5 1.64263 26.2206 1.69531 25.915L4.81445 7.91504C4.8508 7.70527 5.01437 7.5445 5.21777 7.50781L5.30664 7.5Z" stroke="black"/>
<path d="M12.5088 0.5C13.0422 0.500025 13.5359 0.783423 13.8047 1.24414L15.5596 4.25195C15.6492 4.40549 15.8134 4.49997 15.9912 4.5H31C31.8284 4.5 32.5 5.17157 32.5 6V8H31.5V6C31.5 5.72386 31.2761 5.5 31 5.5H15.9912C15.4578 5.49997 14.9641 5.21658 14.6953 4.75586L12.9404 1.74805C12.8508 1.59451 12.6866 1.50003 12.5088 1.5H2C1.72386 1.5 1.5 1.72386 1.5 2V26C1.5 26.2761 1.72386 26.5 2 26.5H31C31.2761 26.5 31.5 26.2761 31.5 26H32.5C32.5 26.8284 31.8284 27.5 31 27.5H2C1.17157 27.5 0.5 26.8284 0.5 26V2C0.5 1.17157 1.17157 0.5 2 0.5H12.5088Z" fill="black"/>
</svg>
