<svg width="27" height="37" viewBox="0 0 27 37" fill="none" xmlns="http://www.w3.org/2000/svg">
<circle cx="14" cy="9" r="8.5" stroke="black"/>
<path d="M13.5 20.5C20.7656 20.5 26.4999 25.4245 26.5 31.3232C26.5 32.8053 26.1428 33.8169 25.5537 34.5273C24.9609 35.2421 24.0819 35.7142 22.9199 36.0156C21.7549 36.3177 20.3465 36.4375 18.7422 36.4795C17.1353 36.5215 15.3792 36.4854 13.5 36.4854C11.6208 36.4854 9.86474 36.5215 8.25781 36.4795C6.65352 36.4375 5.2451 36.3177 4.08008 36.0156C2.91808 35.7142 2.03907 35.2421 1.44629 34.5273C0.857243 33.8169 0.5 32.8053 0.5 31.3232C0.500057 25.4245 6.23437 20.5 13.5 20.5Z" stroke="black"/>
</svg>
