<svg width="108" height="317" viewBox="0 0 108 317" fill="none" xmlns="http://www.w3.org/2000/svg">
<mask id="path-1-inside-1_9_125" fill="white">
<path d="M101 122.189V298.557H100.917C99.4549 308.843 78.5614 317 53 317C27.4386 317 6.54513 308.843 5.08301 298.557H5V122.189L34.5 41.4981V26.5127H72.5V41.4981L101 122.189Z"/>
</mask>
<path d="M101 122.189V298.557H100.917C99.4549 308.843 78.5614 317 53 317C27.4386 317 6.54513 308.843 5.08301 298.557H5V122.189L34.5 41.4981V26.5127H72.5V41.4981L101 122.189Z" fill="url(#paint0_linear_9_125)"/>
<path d="M101 122.189H103V121.847L102.886 121.523L101 122.189ZM101 298.557V300.557H103V298.557H101ZM100.917 298.557V296.557H99.1812L98.9369 298.275L100.917 298.557ZM53 317L53 319L53 319L53 317ZM5.08301 298.557L7.0631 298.275L6.81882 296.557H5.08301V298.557ZM5 298.557H3V300.557H5V298.557ZM5 122.189L3.12159 121.503L3 121.835V122.189H5ZM34.5 41.4981L36.3784 42.1848L36.5 41.8522V41.4981H34.5ZM34.5 26.5127V24.5127H32.5V26.5127H34.5ZM72.5 26.5127H74.5V24.5127H72.5V26.5127ZM72.5 41.4981H70.5V41.8409L70.6142 42.1641L72.5 41.4981ZM101 122.189H99V298.557H101H103V122.189H101ZM101 298.557V296.557H100.917V298.557V300.557H101V298.557ZM100.917 298.557L98.9369 298.275C98.6623 300.207 97.4443 302.243 95.1015 304.263C92.7647 306.279 89.4393 308.16 85.2746 309.77C76.9511 312.988 65.5911 315 53 315L53 317L53 319C65.9702 319 77.8377 316.934 86.7169 313.501C91.1535 311.786 94.9231 309.699 97.714 307.292C100.499 304.891 102.441 302.05 102.897 298.838L100.917 298.557ZM53 317V315C40.4088 315 29.0489 312.988 20.7254 309.77C16.5607 308.16 13.2353 306.279 10.8985 304.263C8.55567 302.243 7.33766 300.207 7.0631 298.275L5.08301 298.557L3.10291 298.838C3.55942 302.05 5.50139 304.891 8.28605 307.292C11.0769 309.699 14.8466 311.786 19.2831 313.501C28.1623 316.934 40.0297 319 53 319V317ZM5.08301 298.557V296.557H5V298.557V300.557H5.08301V298.557ZM5 298.557H7V122.189H5H3V298.557H5ZM5 122.189L6.87841 122.876L36.3784 42.1848L34.5 41.4981L32.6216 40.8114L3.12159 121.503L5 122.189ZM34.5 41.4981H36.5V26.5127H34.5H32.5V41.4981H34.5ZM34.5 26.5127V28.5127H72.5V26.5127V24.5127H34.5V26.5127ZM72.5 26.5127H70.5V41.4981H72.5H74.5V26.5127H72.5ZM72.5 41.4981L70.6142 42.1641L99.1142 122.856L101 122.189L102.886 121.523L74.3858 40.832L72.5 41.4981Z" fill="black" mask="url(#path-1-inside-1_9_125)"/>
<path d="M53.5 19.4436C59.6092 19.4436 65.0924 20.5244 69.0107 22.2307C70.9713 23.0845 72.4953 24.0748 73.5146 25.1243C74.5294 26.1691 74.9999 27.2212 75 28.2415C75 29.2618 74.5293 30.3139 73.5146 31.3587C72.4952 32.4082 70.9714 33.3994 69.0107 34.2532C65.0924 35.9596 59.6092 37.0403 53.5 37.0403C47.3908 37.0403 41.9076 35.9596 37.9893 34.2532C36.0286 33.3994 34.5048 32.4082 33.4854 31.3587C32.4707 30.3139 32 29.2618 32 28.2415C32.0001 27.2212 32.4706 26.1691 33.4854 25.1243C34.5047 24.0748 36.0287 23.0845 37.9893 22.2307C41.9076 20.5244 47.3908 19.4436 53.5 19.4436Z" fill="#D9D9D9" stroke="black" stroke-width="2"/>
<mask id="path-4-inside-2_9_125" fill="white">
<path d="M76 25.0721H75.96C75.2749 29.7331 65.4819 33.4294 53.5 33.4295C41.518 33.4295 31.7253 29.7331 31.04 25.0721H31V8.35727H76V25.0721Z"/>
</mask>
<path d="M76 25.0721H75.96C75.2749 29.7331 65.4819 33.4294 53.5 33.4295C41.518 33.4295 31.7253 29.7331 31.04 25.0721H31V8.35727H76V25.0721Z" fill="#7C7C7C"/>
<path d="M76 25.0721V27.0721H78V25.0721H76ZM75.96 25.0721V23.0721H74.2324L73.9812 24.7813L75.96 25.0721ZM53.5 33.4295L53.5 35.4295L53.5 35.4295L53.5 33.4295ZM31.04 25.0721L33.0188 24.7812L32.7675 23.0721H31.04V25.0721ZM31 25.0721H29V27.0721H31V25.0721ZM31 8.35727V6.35727H29V8.35727H31ZM76 8.35727H78V6.35727H76V8.35727ZM76 25.0721V23.0721H75.96V25.0721V27.0721H76V25.0721ZM75.96 25.0721L73.9812 24.7813C73.9068 25.2874 73.549 25.9883 72.5657 26.8082C71.592 27.6201 70.15 28.4212 68.2661 29.1252C64.5058 30.5305 59.3083 31.4295 53.5 31.4295L53.5 33.4295L53.5 35.4295C59.6736 35.4295 65.3635 34.4802 69.6664 32.8721C71.8142 32.0694 73.6977 31.0724 75.1274 29.8804C76.5474 28.6963 77.6705 27.1873 77.9387 25.363L75.96 25.0721ZM53.5 33.4295V31.4295C47.6917 31.4295 42.4942 30.5306 38.7339 29.1253C36.8501 28.4212 35.408 27.6201 34.4344 26.8083C33.4511 25.9884 33.0932 25.2873 33.0188 24.7812L31.04 25.0721L29.0613 25.363C29.3295 27.1874 30.4527 28.6963 31.8727 29.8804C33.3023 31.0725 35.1858 32.0694 37.3336 32.8721C41.6365 34.4803 47.3263 35.4295 53.5 35.4295V33.4295ZM31.04 25.0721V23.0721H31V25.0721V27.0721H31.04V25.0721ZM31 25.0721H33V8.35727H31H29V25.0721H31ZM31 8.35727V10.3573H76V8.35727V6.35727H31V8.35727ZM76 8.35727H74V25.0721H76H78V8.35727H76Z" fill="black" mask="url(#path-4-inside-2_9_125)"/>
<mask id="path-6-inside-3_9_125" fill="white">
<path d="M5.1582 119.542C5.05439 119.947 5 120.356 5 120.769C5.00071 129.092 26.4997 135.84 53.0195 135.84C78.889 135.84 99.9804 129.419 101 121.378V266.224H100.978C100.208 274.265 79.0227 280.71 53 280.71C26.9773 280.71 5.79207 274.265 5.02246 266.224H5V119.542H5.1582ZM101 120.157C100.974 119.951 100.933 119.746 100.881 119.542H101V120.157Z"/>
</mask>
<path d="M5.1582 119.542C5.05439 119.947 5 120.356 5 120.769C5.00071 129.092 26.4997 135.84 53.0195 135.84C78.889 135.84 99.9804 129.419 101 121.378V266.224H100.978C100.208 274.265 79.0227 280.71 53 280.71C26.9773 280.71 5.79207 274.265 5.02246 266.224H5V119.542H5.1582ZM101 120.157C100.974 119.951 100.933 119.746 100.881 119.542H101V120.157Z" fill="#AEF0CA"/>
<path d="M5.1582 119.542L7.09544 120.039L7.73623 117.542H5.1582V119.542ZM5 120.769L3 120.769L3 120.769L5 120.769ZM53.0195 135.84L53.0195 137.84L53.0195 137.84L53.0195 135.84ZM101 121.378H103L99.0159 121.126L101 121.378ZM101 266.224V268.224H103V266.224H101ZM100.978 266.224V264.224H99.1598L98.9866 266.033L100.978 266.224ZM5.02246 266.224L7.01336 266.033L6.84019 264.224H5.02246V266.224ZM5 266.224H3V268.224H5V266.224ZM5 119.542V117.542H3V119.542H5ZM101 120.157L99.0159 120.409L103 120.157H101ZM100.881 119.542V117.542H98.3028L98.9436 120.039L100.881 119.542ZM101 119.542H103V117.542H101V119.542ZM5.1582 119.542L3.22097 119.045C3.07795 119.602 3 120.178 3 120.769H5H7C7 120.533 7.03082 120.291 7.09544 120.039L5.1582 119.542ZM5 120.769L3 120.769C3.00026 123.778 4.94033 126.281 7.58222 128.241C10.262 130.23 14.012 131.936 18.4662 133.334C27.3981 136.137 39.6142 137.84 53.0195 137.84V135.84V133.84C39.905 133.84 28.1117 132.169 19.664 129.517C15.4283 128.188 12.146 126.647 9.96578 125.029C7.74767 123.383 7.0001 121.921 7 120.768L5 120.769ZM53.0195 135.84L53.0195 137.84C66.0979 137.84 78.0413 136.219 86.9073 133.539C91.3314 132.201 95.085 130.571 97.8425 128.679C100.551 126.82 102.623 124.478 102.984 121.63L101 121.378L99.0159 121.126C98.8672 122.299 97.9201 123.774 95.5791 125.381C93.2868 126.954 89.9595 128.437 85.7497 129.71C77.3477 132.25 65.8105 133.84 53.0195 133.84L53.0195 135.84ZM101 121.378H99V266.224H101H103V121.378H101ZM101 266.224V264.224H100.978V266.224V268.224H101V266.224ZM100.978 266.224L98.9866 266.033C98.8774 267.175 97.9894 268.631 95.6758 270.236C93.4114 271.807 90.0952 273.292 85.8793 274.568C77.4669 277.114 65.8685 278.71 53 278.71V280.71V282.71C66.1542 282.71 78.1597 281.084 87.038 278.397C91.4675 277.056 95.2184 275.422 97.9558 273.523C100.644 271.658 102.693 269.293 102.968 266.414L100.978 266.224ZM53 280.71V278.71C40.1315 278.71 28.5331 277.114 20.1207 274.568C15.9048 273.292 12.5886 271.807 10.3242 270.236C8.01062 268.631 7.12263 267.175 7.01336 266.033L5.02246 266.224L3.03156 266.414C3.3071 269.293 5.35586 271.658 8.04417 273.523C10.7816 275.422 14.5325 277.056 18.962 278.397C27.8403 281.084 39.8458 282.71 53 282.71V280.71ZM5.02246 266.224V264.224H5V266.224V268.224H5.02246V266.224ZM5 266.224H7V119.542H5H3V266.224H5ZM5 119.542V121.542H5.1582V119.542V117.542H5V119.542ZM101 120.157L102.984 119.905C102.946 119.607 102.889 119.32 102.818 119.045L100.881 119.542L98.9436 120.039C98.9777 120.172 99.0014 120.295 99.0159 120.409L101 120.157ZM100.881 119.542V121.542H101V119.542V117.542H100.881V119.542ZM101 119.542H99V120.157H101H103V119.542H101Z" fill="black" mask="url(#path-6-inside-3_9_125)"/>
<path d="M53.5 1C59.6157 1 65.106 2.01768 69.0303 3.62598C70.9948 4.43117 72.5192 5.36517 73.5361 6.35059C74.5499 7.33298 75 8.30294 75 9.22168C75 10.1404 74.5498 11.1104 73.5361 12.0928C72.5192 13.0782 70.9948 14.0122 69.0303 14.8174C65.106 16.4257 59.6158 17.4434 53.5 17.4434C47.3842 17.4434 41.894 16.4257 37.9697 14.8174C36.0052 14.0122 34.4808 13.0782 33.4639 12.0928C32.4502 11.1104 32 10.1404 32 9.22168C32 8.30294 32.4501 7.33298 33.4639 6.35059C34.4808 5.36517 36.0052 4.43117 37.9697 3.62598C41.894 2.01768 47.3843 1 53.5 1Z" fill="#7C7C7C" stroke="black" stroke-width="2"/>
<path d="M19.5645 163.128C19.0779 163.128 18.6112 163.081 18.1645 162.988C17.7179 162.901 17.3079 162.764 16.9345 162.578C16.5679 162.391 16.2545 162.164 15.9945 161.898C15.7279 161.604 15.5079 161.274 15.3345 160.908C15.1679 160.534 15.0445 160.148 14.9645 159.748C14.8912 159.341 14.8545 158.941 14.8545 158.548C14.8545 158.288 14.8845 158.061 14.9445 157.868C15.0112 157.674 15.1012 157.511 15.2145 157.378C15.3345 157.238 15.4712 157.134 15.6245 157.068C15.7845 157.001 15.9545 156.968 16.1345 156.968C16.3279 156.968 16.4879 157.028 16.6145 157.148C16.7412 157.268 16.8379 157.488 16.9045 157.808C16.9512 158.168 17.0079 158.498 17.0745 158.798C17.1479 159.091 17.2445 159.364 17.3645 159.618C17.5579 160.031 17.8145 160.338 18.1345 160.538C18.4545 160.731 18.8412 160.828 19.2945 160.828C19.7479 160.828 20.1112 160.768 20.3845 160.648C20.6579 160.521 20.8979 160.331 21.1045 160.078C21.3379 159.791 21.5179 159.441 21.6445 159.028C21.7712 158.608 21.8579 158.138 21.9045 157.618C21.9579 157.091 21.9845 156.538 21.9845 155.958C21.9845 155.484 21.9745 155.038 21.9545 154.618C21.9412 154.198 21.9245 153.811 21.9045 153.458C21.8845 153.098 21.8612 152.774 21.8345 152.488C21.8145 152.201 21.7945 151.954 21.7745 151.748C21.7612 151.534 21.7545 151.358 21.7545 151.218C21.7545 150.978 21.7912 150.771 21.8645 150.598C21.9379 150.418 22.0679 150.281 22.2545 150.188C22.4479 150.094 22.7279 150.048 23.0945 150.048C23.3879 150.048 23.6379 150.111 23.8445 150.238C24.0579 150.358 24.2379 150.534 24.3845 150.768C24.4645 150.921 24.5379 151.104 24.6045 151.318C24.6779 151.524 24.7412 151.768 24.7945 152.048C24.8479 152.321 24.8912 152.631 24.9245 152.978C24.9645 153.318 24.9945 153.691 25.0145 154.098C25.0345 154.504 25.0445 154.948 25.0445 155.428C25.0445 156.334 24.9979 157.118 24.9045 157.778C24.8179 158.438 24.6945 159.004 24.5345 159.478C24.3812 159.944 24.2012 160.348 23.9945 160.688C23.7945 161.028 23.5812 161.328 23.3545 161.588C22.8545 162.154 22.2679 162.551 21.5945 162.778C20.9279 163.011 20.2512 163.128 19.5645 163.128ZM30.6036 163.398C30.0636 163.398 29.5503 163.344 29.0636 163.238C28.5836 163.131 28.1569 162.961 27.7836 162.728C27.4103 162.494 27.1169 162.191 26.9036 161.818C26.6903 161.444 26.5836 160.988 26.5836 160.448C26.5836 159.834 26.7336 159.331 27.0336 158.938C27.3336 158.544 27.7403 158.238 28.2536 158.018C28.7736 157.791 29.3569 157.634 30.0036 157.548C30.6503 157.461 31.3203 157.418 32.0136 157.418C32.2269 157.418 32.4436 157.424 32.6636 157.438C32.8836 157.451 33.0903 157.464 33.2836 157.478C33.4836 157.491 33.6469 157.498 33.7736 157.498C33.9469 157.498 34.0636 157.471 34.1236 157.418C34.1836 157.358 34.2136 157.258 34.2136 157.118C34.2136 156.858 34.1803 156.628 34.1136 156.428C34.0536 156.228 33.9636 156.051 33.8436 155.898C33.7236 155.744 33.5803 155.614 33.4136 155.508C33.1469 155.328 32.8236 155.201 32.4436 155.128C32.0703 155.048 31.6669 155.008 31.2336 155.008C30.7203 155.008 30.2636 155.061 29.8636 155.168C29.4703 155.274 29.1203 155.384 28.8136 155.498C28.5069 155.611 28.2269 155.668 27.9736 155.668C27.6269 155.668 27.3603 155.611 27.1736 155.498C26.9869 155.384 26.8936 155.201 26.8936 154.948C26.8936 154.688 27.0036 154.448 27.2236 154.228C27.4436 154.008 27.7469 153.814 28.1336 153.648C28.5269 153.481 28.9803 153.351 29.4936 153.258C30.0136 153.164 30.5669 153.118 31.1536 153.118C32.3336 153.118 33.3203 153.268 34.1136 153.568C34.9136 153.861 35.5136 154.341 35.9136 155.008C36.3136 155.668 36.5136 156.558 36.5136 157.678C36.5136 158.011 36.4969 158.301 36.4636 158.548C36.4303 158.794 36.3869 159.011 36.3336 159.198C36.2869 159.378 36.2469 159.534 36.2136 159.668C36.1803 159.801 36.1636 159.924 36.1636 160.038C36.1636 160.198 36.2136 160.351 36.3136 160.498C36.4203 160.638 36.5436 160.778 36.6836 160.918C36.8303 161.058 36.9569 161.208 37.0636 161.368C37.1703 161.521 37.2236 161.694 37.2236 161.888C37.2236 162.174 37.1303 162.381 36.9436 162.508C36.7569 162.634 36.5503 162.698 36.3236 162.698C36.1169 162.698 35.9436 162.628 35.8036 162.488C35.6703 162.354 35.5469 162.221 35.4336 162.088C35.3269 161.954 35.1936 161.888 35.0336 161.888C34.9403 161.888 34.8369 161.914 34.7236 161.968C34.6169 162.021 34.4836 162.104 34.3236 162.218C34.1236 162.364 33.8669 162.528 33.5536 162.708C33.2469 162.894 32.8536 163.054 32.3736 163.188C31.8936 163.328 31.3036 163.398 30.6036 163.398ZM30.8736 161.868C31.2869 161.868 31.6869 161.804 32.0736 161.678C32.4603 161.544 32.8069 161.364 33.1136 161.138C33.4203 160.904 33.6636 160.634 33.8436 160.328C34.0236 160.014 34.1136 159.678 34.1136 159.318C34.1136 159.091 34.0369 158.928 33.8836 158.828C33.7369 158.728 33.4936 158.664 33.1536 158.638C32.8136 158.611 32.3636 158.598 31.8036 158.598C31.2503 158.598 30.7369 158.654 30.2636 158.768C29.7903 158.874 29.4103 159.058 29.1236 159.318C28.8369 159.571 28.6936 159.918 28.6936 160.358C28.6936 160.698 28.7803 160.978 28.9536 161.198C29.1269 161.418 29.3769 161.584 29.7036 161.698C30.0303 161.811 30.4203 161.868 30.8736 161.868ZM42.6644 162.768C42.251 162.768 41.821 162.748 41.3744 162.708C40.9277 162.674 40.5077 162.621 40.1144 162.548C39.721 162.474 39.3877 162.384 39.1144 162.278C38.8677 162.178 38.6644 162.064 38.5044 161.938C38.351 161.811 38.2744 161.631 38.2744 161.398C38.2744 161.138 38.351 160.941 38.5044 160.808C38.6577 160.668 38.881 160.598 39.1744 160.598C39.381 160.598 39.6377 160.634 39.9444 160.708C40.2577 160.774 40.611 160.848 41.0044 160.928C41.3977 161.001 41.8144 161.038 42.2544 161.038C42.6877 161.038 43.101 161.001 43.4944 160.928C43.8877 160.848 44.2077 160.718 44.4544 160.538C44.701 160.358 44.8244 160.111 44.8244 159.798C44.8244 159.511 44.7444 159.278 44.5844 159.098C44.431 158.918 44.161 158.761 43.7744 158.628C43.3877 158.494 42.8444 158.358 42.1444 158.218C41.3777 158.064 40.7277 157.864 40.1944 157.618C39.6677 157.371 39.2644 157.068 38.9844 156.708C38.711 156.341 38.5744 155.904 38.5744 155.398C38.5744 154.958 38.6977 154.578 38.9444 154.258C39.1977 153.931 39.541 153.664 39.9744 153.458C40.4077 153.244 40.901 153.088 41.4544 152.988C42.0144 152.881 42.601 152.828 43.2144 152.828C43.5877 152.828 43.9677 152.851 44.3544 152.898C44.7477 152.938 45.111 153.001 45.4444 153.088C45.7844 153.168 46.0577 153.274 46.2644 153.408C46.471 153.534 46.5744 153.688 46.5744 153.868C46.5744 154.061 46.5277 154.218 46.4344 154.338C46.341 154.458 46.2177 154.544 46.0644 154.598C45.9177 154.651 45.7544 154.678 45.5744 154.678C45.2877 154.678 44.9577 154.644 44.5844 154.578C44.2177 154.511 43.8177 154.478 43.3844 154.478C43.0044 154.478 42.651 154.518 42.3244 154.598C41.9977 154.671 41.7344 154.791 41.5344 154.958C41.341 155.118 41.2444 155.331 41.2444 155.598C41.2444 155.991 41.4577 156.294 41.8844 156.508C42.3177 156.721 42.951 156.914 43.7844 157.088C44.5577 157.241 45.1977 157.438 45.7044 157.678C46.2177 157.911 46.6044 158.211 46.8644 158.578C47.1244 158.938 47.2544 159.388 47.2544 159.928C47.2544 160.441 47.131 160.878 46.8844 161.238C46.6377 161.598 46.301 161.891 45.8744 162.118C45.4477 162.338 44.9577 162.501 44.4044 162.608C43.851 162.714 43.271 162.768 42.6644 162.768ZM49.21 162.618C48.97 162.618 48.7733 162.554 48.62 162.428C48.4667 162.301 48.3533 162.118 48.28 161.878C48.2067 161.631 48.17 161.334 48.17 160.988C48.17 160.681 48.1767 160.351 48.19 159.998C48.21 159.638 48.24 159.268 48.28 158.888C48.32 158.508 48.37 158.131 48.43 157.758C48.49 157.384 48.56 157.024 48.64 156.678C48.7267 156.324 48.8267 155.998 48.94 155.698C49.2667 154.944 49.67 154.368 50.15 153.968C50.63 153.561 51.2067 153.358 51.88 153.358C52.36 153.358 52.76 153.491 53.08 153.758C53.4 154.018 53.6633 154.358 53.87 154.778C54.0833 155.198 54.2633 155.648 54.41 156.128C54.5233 156.461 54.6467 156.758 54.78 157.018C54.9133 157.271 55.0633 157.398 55.23 157.398C55.43 157.398 55.6333 157.271 55.84 157.018C56.0467 156.764 56.26 156.441 56.48 156.048C56.7933 155.494 57.1 155.021 57.4 154.628C57.7067 154.228 58.04 153.921 58.4 153.708C58.7667 153.488 59.1967 153.378 59.69 153.378C60.35 153.378 60.88 153.574 61.28 153.968C61.68 154.361 61.97 154.891 62.15 155.558C62.33 156.218 62.42 156.954 62.42 157.768C62.42 158.081 62.4133 158.404 62.4 158.738C62.3867 159.071 62.3633 159.404 62.33 159.738C62.3033 160.071 62.2667 160.394 62.22 160.708C62.1733 161.014 62.12 161.301 62.06 161.568C61.9467 161.934 61.8067 162.198 61.64 162.358C61.4733 162.511 61.2533 162.588 60.98 162.588C60.7333 162.588 60.5333 162.521 60.38 162.388C60.2267 162.248 60.1133 162.061 60.04 161.828C60.0267 161.688 60.0167 161.524 60.01 161.338C60.01 161.144 60.0133 160.934 60.02 160.708C60.0267 160.474 60.0333 160.224 60.04 159.958C60.0533 159.691 60.06 159.401 60.06 159.088C60.0667 158.774 60.0667 158.444 60.06 158.098C60.0467 157.704 60.0067 157.338 59.94 156.998C59.8733 156.658 59.7667 156.381 59.62 156.168C59.4733 155.954 59.28 155.848 59.04 155.848C58.8067 155.848 58.5833 155.954 58.37 156.168C58.1633 156.374 57.96 156.648 57.76 156.988C57.5667 157.328 57.37 157.694 57.17 158.088C56.8567 158.734 56.55 159.228 56.25 159.568C55.95 159.901 55.57 160.068 55.11 160.068C54.6567 160.068 54.3067 159.911 54.06 159.598C53.82 159.278 53.6267 158.844 53.48 158.298C53.3667 157.871 53.25 157.488 53.13 157.148C53.01 156.808 52.87 156.538 52.71 156.338C52.5567 156.138 52.3633 156.038 52.13 156.038C51.9033 156.038 51.6967 156.144 51.51 156.358C51.3233 156.571 51.1533 156.894 51 157.328C50.84 157.808 50.7133 158.294 50.62 158.788C50.5267 159.281 50.4567 159.758 50.41 160.218C50.37 160.678 50.3433 161.098 50.33 161.478C50.2633 161.884 50.1467 162.178 49.98 162.358C49.82 162.531 49.5633 162.618 49.21 162.618ZM65.4802 162.698C65.1668 162.698 64.9168 162.634 64.7302 162.508C64.5502 162.388 64.4235 162.194 64.3502 161.928C64.2768 161.654 64.2402 161.311 64.2402 160.898C64.2402 160.671 64.2435 160.398 64.2502 160.078C64.2635 159.758 64.2802 159.411 64.3002 159.038C64.3202 158.658 64.3435 158.274 64.3702 157.888C64.3968 157.501 64.4268 157.131 64.4602 156.778C64.4935 156.418 64.5268 156.094 64.5602 155.808C64.5935 155.521 64.6268 155.291 64.6602 155.118C64.7935 154.698 64.9902 154.384 65.2502 154.178C65.5168 153.971 65.8502 153.868 66.2502 153.868C66.6302 153.868 66.9068 154.011 67.0802 154.298C67.2535 154.584 67.3402 154.998 67.3402 155.538C67.3402 155.738 67.3335 156.008 67.3202 156.348C67.3068 156.688 67.2868 157.064 67.2602 157.478C67.2335 157.891 67.2035 158.314 67.1702 158.748C67.1435 159.181 67.1068 159.598 67.0602 159.998C67.0202 160.391 66.9802 160.741 66.9402 161.048C66.9002 161.348 66.8535 161.574 66.8002 161.728C66.6668 162.088 66.4902 162.338 66.2702 162.478C66.0568 162.624 65.7935 162.698 65.4802 162.698ZM66.1602 152.318C65.5335 152.318 65.1035 152.211 64.8702 151.998C64.6368 151.784 64.5202 151.544 64.5202 151.278C64.5202 150.938 64.6435 150.654 64.8902 150.428C65.1368 150.194 65.4402 150.018 65.8002 149.898C66.1602 149.778 66.5202 149.718 66.8802 149.718C67.1402 149.718 67.3802 149.761 67.6002 149.848C67.8202 149.934 67.9935 150.068 68.1202 150.248C68.2535 150.428 68.3202 150.664 68.3202 150.958C68.3202 151.278 68.2202 151.538 68.0202 151.738C67.8202 151.938 67.5568 152.084 67.2302 152.178C66.9035 152.271 66.5468 152.318 66.1602 152.318ZM70.8634 162.648C70.5501 162.648 70.3034 162.564 70.1234 162.398C69.9434 162.231 69.8134 161.961 69.7334 161.588C69.7068 161.414 69.6901 161.218 69.6834 160.998C69.6768 160.778 69.6768 160.528 69.6834 160.248C69.6901 159.968 69.7068 159.661 69.7334 159.328C69.8134 158.001 70.0834 156.878 70.5434 155.958C71.0034 155.031 71.6434 154.328 72.4634 153.848C73.2834 153.361 74.2601 153.118 75.3934 153.118C76.5334 153.118 77.5101 153.348 78.3234 153.808C79.1368 154.268 79.7601 154.974 80.1934 155.928C80.6268 156.881 80.8434 158.098 80.8434 159.578C80.8434 159.844 80.8368 160.091 80.8234 160.318C80.8168 160.544 80.8034 160.751 80.7834 160.938C80.7634 161.124 80.7334 161.294 80.6934 161.448C80.5934 161.874 80.4434 162.181 80.2434 162.368C80.0501 162.554 79.7968 162.648 79.4834 162.648C79.1634 162.648 78.9201 162.594 78.7534 162.488C78.5868 162.381 78.4668 162.221 78.3934 162.008C78.3201 161.794 78.2701 161.531 78.2434 161.218C78.2234 160.718 78.2034 160.278 78.1834 159.898C78.1701 159.511 78.1468 159.168 78.1134 158.868C78.0868 158.561 78.0534 158.278 78.0134 158.018C77.9734 157.751 77.9234 157.484 77.8634 157.218C77.7101 156.538 77.4534 156.021 77.0934 155.668C76.7334 155.314 76.1968 155.138 75.4834 155.138C74.7968 155.138 74.2434 155.328 73.8234 155.708C73.4101 156.088 73.0901 156.611 72.8634 157.278C72.7634 157.558 72.6801 157.851 72.6134 158.158C72.5468 158.464 72.4901 158.781 72.4434 159.108C72.4034 159.434 72.3668 159.778 72.3334 160.138C72.3068 160.498 72.2801 160.874 72.2534 161.268C72.2201 161.641 72.1401 161.928 72.0134 162.128C71.8868 162.328 71.7268 162.464 71.5334 162.538C71.3401 162.611 71.1168 162.648 70.8634 162.648ZM87.9606 163.118C86.8406 163.118 85.8706 162.948 85.0506 162.608C84.2306 162.268 83.5973 161.744 83.1506 161.038C82.704 160.324 82.4806 159.418 82.4806 158.318C82.4806 157.404 82.6306 156.608 82.9306 155.928C83.2373 155.241 83.6573 154.668 84.1906 154.208C84.724 153.748 85.3406 153.404 86.0406 153.178C86.7406 152.944 87.4873 152.828 88.2806 152.828C88.8206 152.828 89.3306 152.884 89.8106 152.998C90.2973 153.111 90.7273 153.288 91.1006 153.528C91.4806 153.761 91.7773 154.061 91.9906 154.428C92.204 154.794 92.3106 155.231 92.3106 155.738C92.3106 156.278 92.1973 156.718 91.9706 157.058C91.744 157.391 91.434 157.654 91.0406 157.848C90.6473 158.034 90.2006 158.174 89.7006 158.268C89.2073 158.354 88.6906 158.421 88.1506 158.468C87.8773 158.514 87.554 158.554 87.1806 158.588C86.8073 158.614 86.444 158.638 86.0906 158.658C85.744 158.671 85.474 158.678 85.2806 158.678C85.0806 158.678 84.944 158.704 84.8706 158.758C84.7973 158.811 84.7606 158.908 84.7606 159.048C84.7606 159.214 84.8073 159.411 84.9006 159.638C84.994 159.858 85.1273 160.074 85.3006 160.288C85.6206 160.681 85.9906 160.944 86.4106 161.078C86.8373 161.204 87.3606 161.268 87.9806 161.268C88.5206 161.268 89.014 161.204 89.4606 161.078C89.9073 160.944 90.3073 160.814 90.6606 160.688C91.0206 160.554 91.344 160.488 91.6306 160.488C91.8906 160.488 92.094 160.538 92.2406 160.638C92.394 160.731 92.4706 160.918 92.4706 161.198C92.4706 161.451 92.354 161.694 92.1206 161.928C91.894 162.161 91.5773 162.364 91.1706 162.538C90.764 162.718 90.2873 162.858 89.7406 162.958C89.194 163.064 88.6006 163.118 87.9606 163.118ZM87.1706 157.558C87.7106 157.558 88.214 157.508 88.6806 157.408C89.1473 157.301 89.524 157.124 89.8106 156.878C90.104 156.624 90.2506 156.278 90.2506 155.838C90.2506 155.318 90.0606 154.928 89.6806 154.668C89.3006 154.401 88.7673 154.268 88.0806 154.268C87.674 154.268 87.2773 154.341 86.8906 154.488C86.504 154.628 86.1606 154.824 85.8606 155.078C85.5606 155.331 85.3206 155.618 85.1406 155.938C84.9606 156.258 84.8706 156.601 84.8706 156.968C84.8706 157.154 84.944 157.291 85.0906 157.378C85.244 157.458 85.4873 157.508 85.8206 157.528C86.1606 157.548 86.6106 157.558 87.1706 157.558ZM42.444 180.888C42.0773 180.888 41.8007 180.764 41.614 180.518C41.4273 180.278 41.314 179.888 41.274 179.348C41.2673 179.128 41.2607 178.834 41.254 178.468C41.254 178.094 41.2573 177.678 41.264 177.218C41.2707 176.751 41.2773 176.268 41.284 175.768C41.2973 175.261 41.3073 174.764 41.314 174.278C41.3273 173.784 41.334 173.328 41.334 172.908C41.3407 172.481 41.344 172.118 41.344 171.818C41.344 171.418 41.2873 171.151 41.174 171.018C41.0673 170.884 40.8207 170.818 40.434 170.818C40.0207 170.818 39.604 170.851 39.184 170.918C38.7707 170.978 38.3607 171.008 37.954 171.008C37.754 171.008 37.574 170.971 37.414 170.898C37.254 170.824 37.1273 170.718 37.034 170.578C36.9473 170.431 36.904 170.254 36.904 170.048C36.904 169.808 37.024 169.598 37.264 169.418C37.5107 169.238 37.8507 169.088 38.284 168.968C38.7173 168.841 39.2273 168.741 39.814 168.668C40.4007 168.588 41.0407 168.531 41.734 168.498C42.4273 168.464 43.1473 168.448 43.894 168.448C44.3807 168.448 44.8573 168.458 45.324 168.478C45.7973 168.498 46.2407 168.534 46.654 168.588C47.074 168.641 47.4407 168.721 47.754 168.828C48.074 168.934 48.324 169.074 48.504 169.248C48.684 169.414 48.774 169.624 48.774 169.878C48.774 170.111 48.724 170.304 48.624 170.458C48.5307 170.611 48.394 170.728 48.214 170.808C48.034 170.881 47.8107 170.918 47.544 170.918C47.1973 170.918 46.9007 170.908 46.654 170.888C46.4073 170.861 46.1173 170.848 45.784 170.848C45.2907 170.848 44.9307 170.888 44.704 170.968C44.4773 171.041 44.334 171.188 44.274 171.408C44.214 171.621 44.1773 171.944 44.164 172.378C44.1573 172.664 44.144 172.971 44.124 173.298C44.1107 173.624 44.094 173.968 44.074 174.328C44.054 174.688 44.0273 175.054 43.994 175.428C43.9673 175.794 43.9373 176.161 43.904 176.528C43.8773 176.888 43.8473 177.241 43.814 177.588C43.7873 177.928 43.7573 178.248 43.724 178.548C43.6907 178.848 43.6607 179.121 43.634 179.368C43.554 179.748 43.4673 180.051 43.374 180.278C43.2873 180.498 43.1707 180.654 43.024 180.748C42.884 180.841 42.6907 180.888 42.444 180.888ZM54.2204 181.118C53.1004 181.118 52.1304 180.948 51.3104 180.608C50.4904 180.268 49.8571 179.744 49.4104 179.038C48.9637 178.324 48.7404 177.418 48.7404 176.318C48.7404 175.404 48.8904 174.608 49.1904 173.928C49.4971 173.241 49.9171 172.668 50.4504 172.208C50.9837 171.748 51.6004 171.404 52.3004 171.178C53.0004 170.944 53.7471 170.828 54.5404 170.828C55.0804 170.828 55.5904 170.884 56.0704 170.998C56.5571 171.111 56.9871 171.288 57.3604 171.528C57.7404 171.761 58.0371 172.061 58.2504 172.428C58.4637 172.794 58.5704 173.231 58.5704 173.738C58.5704 174.278 58.4571 174.718 58.2304 175.058C58.0037 175.391 57.6937 175.654 57.3004 175.848C56.9071 176.034 56.4604 176.174 55.9604 176.268C55.4671 176.354 54.9504 176.421 54.4104 176.468C54.1371 176.514 53.8137 176.554 53.4404 176.588C53.0671 176.614 52.7037 176.638 52.3504 176.658C52.0037 176.671 51.7337 176.678 51.5404 176.678C51.3404 176.678 51.2037 176.704 51.1304 176.758C51.0571 176.811 51.0204 176.908 51.0204 177.048C51.0204 177.214 51.0671 177.411 51.1604 177.638C51.2537 177.858 51.3871 178.074 51.5604 178.288C51.8804 178.681 52.2504 178.944 52.6704 179.078C53.0971 179.204 53.6204 179.268 54.2404 179.268C54.7804 179.268 55.2737 179.204 55.7204 179.078C56.1671 178.944 56.5671 178.814 56.9204 178.688C57.2804 178.554 57.6037 178.488 57.8904 178.488C58.1504 178.488 58.3537 178.538 58.5004 178.638C58.6537 178.731 58.7304 178.918 58.7304 179.198C58.7304 179.451 58.6137 179.694 58.3804 179.928C58.1537 180.161 57.8371 180.364 57.4304 180.538C57.0237 180.718 56.5471 180.858 56.0004 180.958C55.4537 181.064 54.8604 181.118 54.2204 181.118ZM53.4304 175.558C53.9704 175.558 54.4737 175.508 54.9404 175.408C55.4071 175.301 55.7837 175.124 56.0704 174.878C56.3637 174.624 56.5104 174.278 56.5104 173.838C56.5104 173.318 56.3204 172.928 55.9404 172.668C55.5604 172.401 55.0271 172.268 54.3404 172.268C53.9337 172.268 53.5371 172.341 53.1504 172.488C52.7637 172.628 52.4204 172.824 52.1204 173.078C51.8204 173.331 51.5804 173.618 51.4004 173.938C51.2204 174.258 51.1304 174.601 51.1304 174.968C51.1304 175.154 51.2037 175.291 51.3504 175.378C51.5037 175.458 51.7471 175.508 52.0804 175.528C52.4204 175.548 52.8704 175.558 53.4304 175.558ZM64.2852 181.398C63.7452 181.398 63.2319 181.344 62.7452 181.238C62.2652 181.131 61.8386 180.961 61.4652 180.728C61.0919 180.494 60.7986 180.191 60.5852 179.818C60.3719 179.444 60.2652 178.988 60.2652 178.448C60.2652 177.834 60.4152 177.331 60.7152 176.938C61.0152 176.544 61.4219 176.238 61.9352 176.018C62.4552 175.791 63.0386 175.634 63.6852 175.548C64.3319 175.461 65.0019 175.418 65.6952 175.418C65.9086 175.418 66.1252 175.424 66.3452 175.438C66.5652 175.451 66.7719 175.464 66.9652 175.478C67.1652 175.491 67.3286 175.498 67.4552 175.498C67.6286 175.498 67.7452 175.471 67.8052 175.418C67.8652 175.358 67.8952 175.258 67.8952 175.118C67.8952 174.858 67.8619 174.628 67.7952 174.428C67.7352 174.228 67.6452 174.051 67.5252 173.898C67.4052 173.744 67.2619 173.614 67.0952 173.508C66.8286 173.328 66.5052 173.201 66.1252 173.128C65.7519 173.048 65.3486 173.008 64.9152 173.008C64.4019 173.008 63.9452 173.061 63.5452 173.168C63.1519 173.274 62.8019 173.384 62.4952 173.498C62.1886 173.611 61.9086 173.668 61.6552 173.668C61.3086 173.668 61.0419 173.611 60.8552 173.498C60.6686 173.384 60.5752 173.201 60.5752 172.948C60.5752 172.688 60.6852 172.448 60.9052 172.228C61.1252 172.008 61.4286 171.814 61.8152 171.648C62.2086 171.481 62.6619 171.351 63.1752 171.258C63.6952 171.164 64.2486 171.118 64.8352 171.118C66.0152 171.118 67.0019 171.268 67.7952 171.568C68.5952 171.861 69.1952 172.341 69.5952 173.008C69.9952 173.668 70.1952 174.558 70.1952 175.678C70.1952 176.011 70.1786 176.301 70.1452 176.548C70.1119 176.794 70.0686 177.011 70.0152 177.198C69.9686 177.378 69.9286 177.534 69.8952 177.668C69.8619 177.801 69.8452 177.924 69.8452 178.038C69.8452 178.198 69.8952 178.351 69.9952 178.498C70.1019 178.638 70.2252 178.778 70.3652 178.918C70.5119 179.058 70.6386 179.208 70.7452 179.368C70.8519 179.521 70.9052 179.694 70.9052 179.888C70.9052 180.174 70.8119 180.381 70.6252 180.508C70.4386 180.634 70.2319 180.698 70.0052 180.698C69.7986 180.698 69.6252 180.628 69.4852 180.488C69.3519 180.354 69.2286 180.221 69.1152 180.088C69.0086 179.954 68.8752 179.888 68.7152 179.888C68.6219 179.888 68.5186 179.914 68.4052 179.968C68.2986 180.021 68.1652 180.104 68.0052 180.218C67.8052 180.364 67.5486 180.528 67.2352 180.708C66.9286 180.894 66.5352 181.054 66.0552 181.188C65.5752 181.328 64.9852 181.398 64.2852 181.398ZM64.5552 179.868C64.9686 179.868 65.3686 179.804 65.7552 179.678C66.1419 179.544 66.4886 179.364 66.7952 179.138C67.1019 178.904 67.3452 178.634 67.5252 178.328C67.7052 178.014 67.7952 177.678 67.7952 177.318C67.7952 177.091 67.7186 176.928 67.5652 176.828C67.4186 176.728 67.1752 176.664 66.8352 176.638C66.4952 176.611 66.0452 176.598 65.4852 176.598C64.9319 176.598 64.4186 176.654 63.9452 176.768C63.4719 176.874 63.0919 177.058 62.8052 177.318C62.5186 177.571 62.3752 177.918 62.3752 178.358C62.3752 178.698 62.4619 178.978 62.6352 179.198C62.8086 179.418 63.0586 179.584 63.3852 179.698C63.7119 179.811 64.1019 179.868 64.5552 179.868Z" fill="black"/>
<path d="M54 193.689C55.9089 193.689 57.7819 195.305 59.207 198.252C60.6152 201.164 61.5 205.223 61.5 209.732C61.5 214.242 60.6153 218.301 59.207 221.213C57.7819 224.16 55.9089 225.776 54 225.776C52.0911 225.776 50.2181 224.16 48.793 221.213C47.3847 218.301 46.5 214.242 46.5 209.732C46.5 205.223 47.3848 201.164 48.793 198.252C50.2181 195.305 52.0911 193.689 54 193.689Z" fill="#F2FAF0" stroke="#C6D2C4"/>
<path d="M87.119 223.199C87.5191 225.245 86.3909 227.541 84.0008 229.613C81.6266 231.672 78.0974 233.421 73.9735 234.34C69.8495 235.259 65.9595 235.163 63.0117 234.291C60.0442 233.412 58.1497 231.79 57.7496 229.744C57.3496 227.699 58.4776 225.403 60.8678 223.33C63.242 221.271 66.7714 219.523 70.8953 218.604C75.0193 217.685 78.9092 217.78 81.8569 218.653C84.8243 219.532 86.7188 221.154 87.119 223.199Z" fill="#F2FAF0" stroke="#C6D2C4"/>
<path d="M69.7134 269.199C67.9505 270.003 65.6314 269.298 63.2396 267.189C60.8736 265.103 58.5665 261.744 56.9064 257.599C55.2463 253.454 54.5658 249.353 54.7881 246.086C55.0129 242.784 56.1379 240.507 57.9008 239.703C59.6638 238.899 61.9834 239.603 64.3755 241.712C66.7415 243.798 69.0486 247.157 70.7087 251.302C72.3687 255.447 73.0493 259.548 72.827 262.815C72.6021 266.118 71.4764 268.394 69.7134 269.199Z" fill="#F2FAF0" stroke="#C6D2C4"/>
<path d="M23.9526 258.249C22.7978 256.582 22.9178 254 24.2822 251.043C25.6355 248.11 28.1613 244.945 31.5523 242.269C34.9432 239.593 38.5185 237.943 41.5421 237.422C44.5907 236.896 46.9391 237.53 48.0942 239.197C49.2492 240.864 49.1289 243.447 47.7644 246.404C46.411 249.337 43.8858 252.502 40.495 255.178C37.104 257.854 33.5281 259.504 30.5045 260.025C27.4557 260.551 25.1076 259.916 23.9526 258.249Z" fill="#F2FAF0" stroke="#C6D2C4"/>
<path d="M22.1909 214.404C23.1061 212.567 25.3447 211.572 28.4291 211.612C31.4901 211.652 35.2528 212.721 38.9748 214.834C42.6964 216.946 45.6301 219.678 47.3727 222.364C49.1286 225.071 49.6068 227.609 48.6916 229.446C47.7764 231.282 45.5382 232.277 42.4539 232.237C39.3929 232.197 35.6304 231.129 31.9086 229.017C28.1866 226.904 25.2529 224.171 23.5102 221.485C21.7545 218.778 21.2758 216.241 22.1909 214.404Z" fill="#F2FAF0" stroke="#C6D2C4"/>
<path d="M74.0525 199.841C75.7485 200.804 76.688 203.176 76.6505 206.485C76.6133 209.759 75.6108 213.783 73.6289 217.762C71.6469 221.742 69.0826 224.881 66.5605 226.745C64.0118 228.629 61.6443 229.124 59.9482 228.162C58.2521 227.2 57.3114 224.828 57.3489 221.519C57.3861 218.245 58.3889 214.22 60.3709 210.24C62.3528 206.261 64.917 203.123 67.4389 201.259C69.9879 199.374 72.3563 198.879 74.0525 199.841Z" fill="#F2FAF0" stroke="#C6D2C4"/>
<path d="M85.5826 245.395C85.0369 247.4 83.0321 248.862 80.009 249.495C77.0067 250.123 73.1209 249.899 69.0748 248.644C65.029 247.39 61.636 245.357 59.4168 243.109C57.1821 240.846 56.2225 238.465 56.7682 236.46C57.3139 234.455 59.3196 232.993 62.3427 232.36C65.3449 231.731 69.2302 231.955 73.276 233.21C77.3221 234.465 80.7157 236.497 82.935 238.745C85.1697 241.009 86.1283 243.39 85.5826 245.395Z" fill="#F2FAF0" stroke="#C6D2C4"/>
<path d="M49.0111 271.965C47.1086 271.792 45.3703 270.013 44.1837 266.948C43.0112 263.919 42.4511 259.796 42.8082 255.302C43.1653 250.809 44.3682 246.844 46.0019 244.07C47.6552 241.262 49.6496 239.82 51.552 239.992C53.4545 240.165 55.1928 241.944 56.3794 245.009C57.5519 248.038 58.112 252.162 57.7548 256.656C57.3977 261.149 56.1948 265.113 54.5612 267.887C52.9079 270.695 50.9135 272.137 49.0111 271.965Z" fill="#F2FAF0" stroke="#C6D2C4"/>
<path d="M16.6743 237.391C16.3853 235.323 17.6361 233.1 20.1339 231.179C22.6153 229.269 26.233 227.741 30.3995 227.078C34.566 226.414 38.444 226.749 41.3394 227.802C44.254 228.861 46.0583 230.598 46.3473 232.665C46.6363 234.733 45.3855 236.956 42.8877 238.877C40.4063 240.787 36.7886 242.315 32.6221 242.978C28.4557 243.642 24.5776 243.307 21.6822 242.254C18.7676 241.195 16.9634 239.458 16.6743 237.391Z" fill="#F2FAF0" stroke="#C6D2C4"/>
<path d="M36.6751 198.387C38.2715 197.237 40.6773 197.467 43.3947 199.055C46.0849 200.626 48.9421 203.46 51.3031 207.195C53.6639 210.931 55.0552 214.819 55.4134 218.07C55.7751 221.354 55.0743 223.821 53.4779 224.971C51.8814 226.12 49.4758 225.889 46.7586 224.302C44.0685 222.73 41.2115 219.897 38.8506 216.162C36.4897 212.426 35.0979 208.538 34.7398 205.287C34.3782 202.003 35.0789 199.536 36.6751 198.387Z" fill="#F2FAF0" stroke="#C6D2C4"/>
<path d="M54 219.305C60.8732 219.305 66.4998 225.262 66.5 232.68C66.5 240.098 60.8734 246.056 54 246.056C47.1266 246.056 41.5 240.098 41.5 232.68C41.5002 225.262 47.1268 219.305 54 219.305Z" fill="#FFEF77" stroke="#915B1F"/>
<defs>
<linearGradient id="paint0_linear_9_125" x1="53" y1="26.5127" x2="53" y2="317" gradientUnits="userSpaceOnUse">
<stop offset="0.182489" stop-color="#F9A682"/>
<stop offset="0.774942" stop-color="#985136"/>
</linearGradient>
</defs>
</svg>
