<svg width="108" height="297" viewBox="0 0 108 297" fill="none" xmlns="http://www.w3.org/2000/svg">
<mask id="path-1-inside-1_9_46" fill="white">
<path d="M108 114.48V279.72H107.907C106.263 289.357 82.7571 297 54 297C25.2428 297 1.73682 289.357 0.0927734 279.72H0V114.48L33.1875 38.8799V24.8398H75.9375V38.8799L108 114.48Z"/>
</mask>
<path d="M108 114.48V279.72H107.907C106.263 289.357 82.7571 297 54 297C25.2428 297 1.73682 289.357 0.0927734 279.72H0V114.48L33.1875 38.8799V24.8398H75.9375V38.8799L108 114.48Z" fill="url(#paint0_linear_9_46)"/>
<path d="M108 114.48H110V114.074L109.841 113.7L108 114.48ZM108 279.72V281.72H110V279.72H108ZM107.907 279.72V277.72H106.22L105.936 279.383L107.907 279.72ZM54 297L54 299L54 299L54 297ZM0.0927734 279.72L2.06429 279.383L1.78048 277.72H0.0927734V279.72ZM0 279.72H-2V281.72H0V279.72ZM0 114.48L-1.83131 113.677L-2 114.061V114.48H0ZM33.1875 38.8799L35.0188 39.6838L35.1875 39.2995V38.8799H33.1875ZM33.1875 24.8398V22.8398H31.1875V24.8398H33.1875ZM75.9375 24.8398H77.9375V22.8398H75.9375V24.8398ZM75.9375 38.8799H73.9375V39.2865L74.0962 39.6608L75.9375 38.8799ZM108 114.48H106V279.72H108H110V114.48H108ZM108 279.72V277.72H107.907V279.72V281.72H108V279.72ZM107.907 279.72L105.936 279.383C105.652 281.048 104.357 282.93 101.668 284.861C99.0114 286.769 95.2316 288.549 90.5081 290.07C81.074 293.107 68.223 295 54 295L54 297L54 299C68.5341 299 81.8148 297.071 91.734 293.878C96.6871 292.283 100.889 290.345 104.001 288.11C107.081 285.898 109.341 283.21 109.879 280.056L107.907 279.72ZM54 297V295C39.777 295 26.926 293.107 17.4919 290.07C12.7684 288.549 8.98866 286.769 6.33219 284.861C3.64318 282.93 2.34828 281.048 2.06429 279.383L0.0927734 279.72L-1.87875 280.056C-1.34071 283.21 0.919162 285.898 3.99858 288.11C7.11054 290.345 11.3129 292.283 16.2661 293.878C26.1852 297.071 39.4659 299 54 299V297ZM0.0927734 279.72V277.72H0V279.72V281.72H0.0927734V279.72ZM0 279.72H2V114.48H0H-2V279.72H0ZM0 114.48L1.83131 115.284L35.0188 39.6838L33.1875 38.8799L31.3562 38.076L-1.83131 113.677L0 114.48ZM33.1875 38.8799H35.1875V24.8398H33.1875H31.1875V38.8799H33.1875ZM33.1875 24.8398V26.8398H75.9375V24.8398V22.8398H33.1875V24.8398ZM75.9375 24.8398H73.9375V38.8799H75.9375H77.9375V24.8398H75.9375ZM75.9375 38.8799L74.0962 39.6608L106.159 115.261L108 114.48L109.841 113.7L77.7788 38.099L75.9375 38.8799Z" fill="black" mask="url(#path-1-inside-1_9_46)"/>
<path d="M54.5 18C61.4539 18 67.705 19.052 72.1816 20.7197C74.4237 21.555 76.1688 22.5256 77.335 23.5527C78.5027 24.5812 79 25.5796 79 26.5C79 27.4204 78.5027 28.4188 77.335 29.4473C76.1688 30.4744 74.4237 31.445 72.1816 32.2803C67.705 33.948 61.4539 35 54.5 35C47.5461 35 41.295 33.948 36.8184 32.2803C34.5763 31.445 32.8312 30.4744 31.665 29.4473C30.4973 28.4188 30 27.4204 30 26.5C30 25.5796 30.4973 24.5812 31.665 23.5527C32.8312 22.5256 34.5763 21.555 36.8184 20.7197C41.295 19.052 47.5461 18 54.5 18Z" fill="#D9D9D9" stroke="black" stroke-width="2"/>
<mask id="path-4-inside-2_9_46" fill="white">
<path d="M79.875 23.4902H79.8301C79.0593 27.8571 68.0421 31.3202 54.5625 31.3203C41.0826 31.3203 30.0647 27.8572 29.2939 23.4902H29.25V7.83008H79.875V23.4902Z"/>
</mask>
<path d="M79.875 23.4902H79.8301C79.0593 27.8571 68.0421 31.3202 54.5625 31.3203C41.0826 31.3203 30.0647 27.8572 29.2939 23.4902H29.25V7.83008H79.875V23.4902Z" fill="#7C7C7C"/>
<path d="M79.875 23.4902V25.4902H81.875V23.4902H79.875ZM79.8301 23.4902V21.4902H78.1522L77.8605 23.1426L79.8301 23.4902ZM54.5625 31.3203L54.5625 33.3203L54.5625 33.3203L54.5625 31.3203ZM29.2939 23.4902L31.2635 23.1426L30.9719 21.4902H29.2939V23.4902ZM29.25 23.4902H27.25V25.4902H29.25V23.4902ZM29.25 7.83008V5.83008H27.25V7.83008H29.25ZM79.875 7.83008H81.875V5.83008H79.875V7.83008ZM79.875 23.4902V21.4902H79.8301V23.4902V25.4902H79.875V23.4902ZM79.8301 23.4902L77.8605 23.1426C77.8027 23.4704 77.4764 24.1044 76.3117 24.9132C75.1866 25.6945 73.5245 26.4619 71.3678 27.1332C67.0683 28.4713 61.1523 29.3203 54.5625 29.3203L54.5625 31.3203L54.5625 33.3203C61.4523 33.3203 67.7848 32.4376 72.5565 30.9525C74.9353 30.2121 77.0146 29.2949 78.5932 28.1987C80.1322 27.13 81.4721 25.6935 81.7996 23.8379L79.8301 23.4902ZM54.5625 31.3203V29.3203C47.9726 29.3203 42.0563 28.4714 37.7566 27.1332C35.5998 26.462 33.9376 25.6945 32.8124 24.9132C31.6476 24.1044 31.3214 23.4704 31.2635 23.1426L29.2939 23.4902L27.3244 23.8379C27.6519 25.6935 28.9919 27.1301 30.531 28.1988C32.1097 29.295 34.189 30.2121 36.568 30.9525C41.3399 32.4377 47.6726 33.3203 54.5625 33.3203V31.3203ZM29.2939 23.4902V21.4902H29.25V23.4902V25.4902H29.2939V23.4902ZM29.25 23.4902H31.25V7.83008H29.25H27.25V23.4902H29.25ZM29.25 7.83008V9.83008H79.875V7.83008V5.83008H29.25V7.83008ZM79.875 7.83008H77.875V23.4902H79.875H81.875V7.83008H79.875Z" fill="black" mask="url(#path-4-inside-2_9_46)"/>
<mask id="path-6-inside-3_9_46" fill="white">
<path d="M0.176758 112C0.0600639 112.401 4.4101e-05 112.807 0 113.217C0 121.48 24.1863 128.18 54.0215 128.18C83.1356 128.18 106.87 121.801 108 113.813V257.618H107.975C107.109 265.601 83.2756 272 54 272C24.7244 272 0.891032 265.601 0.0253906 257.618H0V112H0.176758ZM108 112.62C107.971 112.412 107.926 112.206 107.866 112H108V112.62Z"/>
</mask>
<path d="M0.176758 112C0.0600639 112.401 4.4101e-05 112.807 0 113.217C0 121.48 24.1863 128.18 54.0215 128.18C83.1356 128.18 106.87 121.801 108 113.813V257.618H107.975C107.109 265.601 83.2756 272 54 272C24.7244 272 0.891032 265.601 0.0253906 257.618H0V112H0.176758ZM108 112.62C107.971 112.412 107.926 112.206 107.866 112H108V112.62Z" fill="#D5F6FF"/>
<path d="M0.176758 112L2.09724 112.558L2.84102 110H0.176758V112ZM0 113.217L-2 113.217V113.217H0ZM54.0215 128.18L54.0215 130.18H54.0215V128.18ZM108 113.813H110L106.02 113.533L108 113.813ZM108 257.618V259.618H110V257.618H108ZM107.975 257.618V255.618H106.18L105.986 257.403L107.975 257.618ZM0.0253906 257.618L2.01374 257.403L1.82025 255.618H0.0253906V257.618ZM0 257.618H-2V259.618H0V257.618ZM0 112V110H-2V112H0ZM108 112.62L106.02 112.901L110 112.62H108ZM107.866 112V110H105.202L105.946 112.558L107.866 112ZM108 112H110V110H108V112ZM0.176758 112L-1.74373 111.442C-1.91056 112.016 -1.99993 112.609 -2 113.217L0 113.217L2 113.217C2.00002 113.005 2.03069 112.787 2.09724 112.558L0.176758 112ZM0 113.217H-2C-2 116.327 0.253929 118.818 3.14962 120.714C6.12799 122.664 10.3055 124.344 15.2887 125.724C25.2832 128.493 38.9766 130.18 54.0215 130.18L54.0215 128.18L54.0215 126.18C39.2312 126.18 25.9139 124.517 16.3564 121.87C11.5636 120.542 7.82987 118.998 5.34096 117.368C2.76936 115.684 2 114.238 2 113.217H0ZM54.0215 128.18V130.18C68.7045 130.18 82.0972 128.573 92.0205 125.924C96.9716 124.602 101.155 122.996 104.22 121.138C107.196 119.333 109.567 117.014 109.98 114.094L108 113.813L106.02 113.533C105.868 114.607 104.848 116.08 102.146 117.718C99.5332 119.302 95.7518 120.788 90.9888 122.059C81.484 124.597 68.4526 126.18 54.0215 126.18V128.18ZM108 113.813H106V257.618H108H110V113.813H108ZM108 257.618V255.618H107.975V257.618V259.618H108V257.618ZM107.975 257.618L105.986 257.403C105.874 258.438 104.924 259.89 102.248 261.527C99.6647 263.109 95.8945 264.597 91.125 265.87C81.6089 268.412 68.5127 270 54 270V272V274C68.763 274 82.2212 272.389 92.1571 269.735C97.1136 268.411 101.294 266.802 104.337 264.939C107.289 263.132 109.642 260.79 109.963 257.834L107.975 257.618ZM54 272V270C39.4873 270 26.3911 268.412 16.875 265.87C12.1055 264.597 8.33534 263.109 5.75151 261.527C3.07603 259.89 2.12597 258.438 2.01374 257.403L0.0253906 257.618L-1.96295 257.834C-1.64237 260.79 0.711356 263.132 3.66295 264.939C6.7062 266.802 10.8864 268.411 15.8429 269.735C25.7788 272.389 39.237 274 54 274V272ZM0.0253906 257.618V255.618H0V257.618V259.618H0.0253906V257.618ZM0 257.618H2V112H0H-2V257.618H0ZM0 112V114H0.176758V112V110H0V112ZM108 112.62L109.98 112.339C109.937 112.036 109.872 111.737 109.787 111.442L107.866 112L105.946 112.558C105.979 112.674 106.004 112.788 106.02 112.901L108 112.62ZM107.866 112V114H108V112V110H107.866V112ZM108 112H106V112.62H108H110V112H108Z" fill="black" mask="url(#path-6-inside-3_9_46)"/>
<path d="M54.5 1C61.464 1 67.7272 1.9426 72.2148 3.43848C74.4638 4.18812 76.2118 5.05841 77.377 5.97656C78.5534 6.90367 79 7.76413 79 8.5C79 9.23587 78.5534 10.0963 77.377 11.0234C76.2118 11.9416 74.4638 12.8119 72.2148 13.5615C67.7272 15.0574 61.464 16 54.5 16C47.536 16 41.2728 15.0574 36.7852 13.5615C34.5362 12.8119 32.7882 11.9416 31.623 11.0234C30.4466 10.0963 30 9.23587 30 8.5C30 7.76413 30.4466 6.90367 31.623 5.97656C32.7882 5.05841 34.5362 4.18812 36.7852 3.43848C41.2728 1.9426 47.536 1 54.5 1Z" fill="#7C7C7C" stroke="black" stroke-width="2"/>
<path d="M37.9844 156.123C37.9844 155.908 37.9746 155.628 37.9551 155.283C37.9421 154.938 37.9225 154.557 37.8965 154.141C37.8704 153.724 37.8411 153.281 37.8086 152.812C37.776 152.344 37.7402 151.878 37.7012 151.416C37.6621 150.954 37.623 150.508 37.584 150.078C37.5514 149.642 37.5189 149.248 37.4863 148.896C37.4342 148.395 37.3626 148.027 37.2715 147.793C37.1803 147.559 37.0306 147.441 36.8223 147.441C36.627 147.441 36.4967 147.497 36.4316 147.607C36.373 147.718 36.3372 147.855 36.3242 148.018C36.3177 148.18 36.3145 148.359 36.3145 148.555C36.321 148.743 36.2917 148.919 36.2266 149.082C36.168 149.245 36.054 149.382 35.8848 149.492C35.7155 149.603 35.4551 149.658 35.1035 149.658C34.8561 149.658 34.6445 149.557 34.4688 149.355C34.293 149.147 34.2051 148.848 34.2051 148.457C34.2051 147.91 34.3678 147.415 34.6934 146.973C35.0124 146.523 35.4648 146.143 36.0508 145.83C36.6367 145.511 37.3431 145.264 38.1699 145.088C38.9967 144.912 39.9147 144.824 40.9238 144.824C41.6465 144.824 42.3138 144.906 42.9258 145.068C43.5378 145.225 44.0651 145.446 44.5078 145.732C44.957 146.012 45.3086 146.348 45.5625 146.738C45.8164 147.122 45.9434 147.542 45.9434 147.998C45.9434 148.512 45.7936 149.004 45.4941 149.473C45.1947 149.941 44.7812 150.371 44.2539 150.762C43.7331 151.152 43.1178 151.494 42.4082 151.787C41.6986 152.074 40.9368 152.298 40.123 152.461C39.8952 152.5 39.7812 152.64 39.7812 152.881C39.7812 153.044 39.791 153.249 39.8105 153.496C39.8366 153.737 39.8594 153.991 39.8789 154.258C39.9049 154.525 39.9277 154.788 39.9473 155.049C39.9733 155.309 39.9863 155.54 39.9863 155.742C39.9863 156.107 39.9017 156.367 39.7324 156.523C39.5632 156.68 39.3125 156.758 38.9805 156.758C38.668 156.758 38.4238 156.702 38.248 156.592C38.0723 156.488 37.9844 156.331 37.9844 156.123ZM43.9219 148.281C43.9219 148.06 43.8275 147.848 43.6387 147.646C43.4499 147.445 43.196 147.266 42.877 147.109C42.5579 146.953 42.1868 146.829 41.7637 146.738C41.347 146.647 40.9076 146.602 40.4453 146.602C40.2174 146.602 40.0254 146.611 39.8691 146.631C39.7194 146.644 39.599 146.67 39.5078 146.709C39.4167 146.748 39.3516 146.8 39.3125 146.865C39.2799 146.924 39.2637 147.002 39.2637 147.1C39.2637 147.165 39.2734 147.318 39.293 147.559C39.3125 147.793 39.3385 148.066 39.3711 148.379C39.4036 148.691 39.4362 149.02 39.4688 149.365C39.5078 149.704 39.5469 150.01 39.5859 150.283C39.6055 150.485 39.6315 150.618 39.6641 150.684C39.7031 150.749 39.7617 150.781 39.8398 150.781C40.0612 150.781 40.3151 150.745 40.6016 150.674C40.888 150.596 41.181 150.495 41.4805 150.371C41.7865 150.241 42.0827 150.094 42.3691 149.932C42.6621 149.762 42.9225 149.587 43.1504 149.404C43.3848 149.215 43.5703 149.027 43.707 148.838C43.8503 148.643 43.9219 148.457 43.9219 148.281ZM48.0332 145.039C47.8444 145.039 47.6654 145.013 47.4961 144.961C47.3333 144.902 47.1901 144.824 47.0664 144.727C46.9492 144.622 46.8548 144.502 46.7832 144.365C46.7116 144.229 46.6758 144.079 46.6758 143.916C46.6758 143.643 46.7832 143.421 46.998 143.252C47.2194 143.083 47.5124 142.998 47.877 142.998C48.0462 142.998 48.209 143.031 48.3652 143.096C48.5215 143.154 48.6582 143.236 48.7754 143.34C48.8991 143.444 48.9967 143.568 49.0684 143.711C49.14 143.848 49.1758 143.991 49.1758 144.141C49.1758 144.421 49.0716 144.642 48.8633 144.805C48.6615 144.961 48.3848 145.039 48.0332 145.039ZM46.6953 148.018C46.6953 147.79 46.793 147.604 46.9883 147.461C47.1901 147.311 47.4538 147.236 47.7793 147.236C48.3652 147.236 48.6777 147.438 48.7168 147.842C48.7428 148.122 48.7689 148.438 48.7949 148.789C48.8275 149.141 48.8568 149.515 48.8828 149.912C48.9154 150.303 48.9414 150.71 48.9609 151.133C48.987 151.549 49.0098 151.963 49.0293 152.373C49.0488 152.777 49.0651 153.167 49.0781 153.545C49.0911 153.923 49.0977 154.268 49.0977 154.58C49.0977 154.906 48.9805 155.15 48.7461 155.312C48.5182 155.475 48.1829 155.557 47.7402 155.557C47.5384 155.557 47.3789 155.508 47.2617 155.41C47.151 155.319 47.0957 155.182 47.0957 155C47.0957 154.102 47.0729 153.262 47.0273 152.48C46.9883 151.693 46.9427 150.993 46.8906 150.381C46.8451 149.769 46.7995 149.261 46.7539 148.857C46.7148 148.447 46.6953 148.167 46.6953 148.018ZM51.0703 147.119C51.0703 147.021 51.1126 146.927 51.1973 146.836C51.2819 146.738 51.3926 146.654 51.5293 146.582C51.666 146.504 51.819 146.442 51.9883 146.396C52.1641 146.344 52.3398 146.318 52.5156 146.318C52.6133 146.318 52.6947 146.344 52.7598 146.396C52.8314 146.449 52.8932 146.549 52.9453 146.699C52.9974 146.842 53.043 147.048 53.082 147.314C53.1276 147.575 53.1699 147.917 53.209 148.34C53.235 148.47 53.2578 148.571 53.2773 148.643C53.3034 148.708 53.3359 148.74 53.375 148.74C53.4336 148.74 53.4922 148.639 53.5508 148.438C54.026 147.064 54.7129 146.377 55.6113 146.377C56.028 146.377 56.4056 146.507 56.7441 146.768C57.0892 147.028 57.4082 147.454 57.7012 148.047C58.0007 148.633 58.2839 149.408 58.5508 150.371C58.8177 151.328 59.0846 152.51 59.3516 153.916C59.3646 153.988 59.3743 154.053 59.3809 154.111C59.3874 154.17 59.3906 154.225 59.3906 154.277C59.3906 154.427 59.3548 154.557 59.2832 154.668C59.2181 154.772 59.1302 154.86 59.0195 154.932C58.9089 154.997 58.7852 155.046 58.6484 155.078C58.5117 155.117 58.375 155.137 58.2383 155.137C57.9648 155.137 57.7663 155.107 57.6426 155.049C57.5254 154.99 57.4505 154.88 57.418 154.717C57.2292 153.727 57.0436 152.848 56.8613 152.08C56.6855 151.312 56.5098 150.667 56.334 150.146C56.1647 149.619 55.9954 149.219 55.8262 148.945C55.6569 148.672 55.4876 148.535 55.3184 148.535C55.1491 148.535 54.9896 148.643 54.8398 148.857C54.6966 149.066 54.5566 149.395 54.4199 149.844C54.2832 150.293 54.1497 150.863 54.0195 151.553C53.8958 152.243 53.7754 153.066 53.6582 154.023C53.6257 154.284 53.4954 154.492 53.2676 154.648C53.0397 154.805 52.75 154.883 52.3984 154.883C52.1641 154.883 51.985 154.834 51.8613 154.736C51.7376 154.639 51.6693 154.505 51.6562 154.336C51.5977 152.982 51.5326 151.868 51.4609 150.996C51.3958 150.117 51.334 149.414 51.2754 148.887C51.2168 148.353 51.168 147.956 51.1289 147.695C51.0898 147.435 51.0703 147.243 51.0703 147.119ZM61.002 154.805C61.002 154.238 60.9857 153.623 60.9531 152.959C60.9206 152.295 60.8783 151.624 60.8262 150.947C60.7806 150.264 60.7285 149.596 60.6699 148.945C60.6178 148.294 60.5658 147.699 60.5137 147.158C60.4681 146.618 60.429 146.152 60.3965 145.762C60.3639 145.371 60.3477 145.098 60.3477 144.941C60.3477 144.681 60.4453 144.482 60.6406 144.346C60.8359 144.209 61.1191 144.141 61.4902 144.141C61.653 144.141 61.7897 144.157 61.9004 144.189C62.0176 144.222 62.112 144.277 62.1836 144.355C62.2552 144.434 62.3105 144.538 62.3496 144.668C62.3952 144.792 62.4277 144.948 62.4473 145.137C62.4733 145.397 62.4961 145.677 62.5156 145.977C62.5352 146.27 62.5547 146.605 62.5742 146.982C62.6003 147.36 62.6263 147.786 62.6523 148.262C62.6784 148.737 62.7109 149.284 62.75 149.902C62.75 149.993 62.7663 150.059 62.7988 150.098C62.8314 150.137 62.8672 150.156 62.9062 150.156C62.9779 150.156 63.043 150.098 63.1016 149.98C63.6549 148.854 64.2344 147.995 64.8398 147.402C65.4453 146.803 66.0345 146.504 66.6074 146.504C66.946 146.504 67.2129 146.605 67.4082 146.807C67.6035 147.008 67.7012 147.279 67.7012 147.617C67.7012 147.982 67.6198 148.32 67.457 148.633C67.3008 148.939 67.1022 149.229 66.8613 149.502C66.627 149.775 66.3698 150.033 66.0898 150.273C65.8164 150.514 65.5592 150.749 65.3184 150.977C65.084 151.204 64.8854 151.429 64.7227 151.65C64.5664 151.865 64.4883 152.083 64.4883 152.305C64.4883 152.507 64.6055 152.715 64.8398 152.93C65.0807 153.138 65.4258 153.346 65.875 153.555C66.3242 153.757 66.8743 153.955 67.5254 154.15C68.1764 154.339 68.9154 154.521 69.7422 154.697C69.8724 154.73 69.9635 154.782 70.0156 154.854C70.0742 154.925 70.1035 155.02 70.1035 155.137C70.1035 155.28 70.071 155.426 70.0059 155.576C69.9408 155.732 69.8594 155.872 69.7617 155.996C69.6641 156.126 69.5534 156.23 69.4297 156.309C69.3125 156.393 69.1986 156.436 69.0879 156.436C68.8665 156.436 68.6029 156.406 68.2969 156.348C67.9909 156.289 67.6589 156.208 67.3008 156.104C66.9492 156.006 66.5846 155.889 66.207 155.752C65.8294 155.622 65.4616 155.479 65.1035 155.322C64.752 155.173 64.4167 155.016 64.0977 154.854C63.7852 154.684 63.515 154.518 63.2871 154.355C63.2155 154.316 63.1569 154.284 63.1113 154.258C63.0723 154.232 63.0365 154.219 63.0039 154.219C62.9648 154.219 62.9421 154.235 62.9355 154.268C62.929 154.294 62.9258 154.352 62.9258 154.443C62.9258 154.671 62.9062 154.857 62.8672 155C62.8346 155.143 62.776 155.254 62.6914 155.332C62.6068 155.417 62.4896 155.475 62.3398 155.508C62.1901 155.54 62.0046 155.557 61.7832 155.557C61.4902 155.557 61.2852 155.501 61.168 155.391C61.0573 155.28 61.002 155.085 61.002 154.805ZM14.8789 179.664C14.6901 179.697 14.5208 179.732 14.3711 179.771C14.2214 179.817 14.0358 179.84 13.8145 179.84C13.5736 179.84 13.388 179.771 13.2578 179.635C13.1276 179.498 13.0625 179.345 13.0625 179.176C13.0625 179.039 13.0853 178.863 13.1309 178.648C13.1764 178.427 13.1992 178.206 13.1992 177.984C13.1536 177.145 13.0918 176.314 13.0137 175.494C12.9421 174.667 12.8704 173.912 12.7988 173.229C12.7272 172.545 12.6654 171.962 12.6133 171.48C12.5612 170.992 12.5352 170.66 12.5352 170.484C12.5352 170.367 12.5645 170.26 12.623 170.162C12.6816 170.058 12.763 169.967 12.8672 169.889C12.9714 169.811 13.0918 169.752 13.2285 169.713C13.3717 169.667 13.5215 169.645 13.6777 169.645C13.9837 169.645 14.2083 169.693 14.3516 169.791C14.4948 169.882 14.5827 170.032 14.6152 170.24C14.7975 171.64 14.9277 172.926 15.0059 174.098C15.0905 175.263 15.1491 176.357 15.1816 177.379C15.1816 177.529 15.2207 177.643 15.2988 177.721C15.3835 177.799 15.4909 177.838 15.6211 177.838C15.8815 177.838 16.1452 177.825 16.4121 177.799C16.679 177.766 16.946 177.734 17.2129 177.701C17.4798 177.669 17.7435 177.639 18.0039 177.613C18.2708 177.581 18.528 177.564 18.7754 177.564C18.9382 177.564 19.0684 177.584 19.166 177.623C19.2702 177.662 19.3483 177.714 19.4004 177.779C19.459 177.844 19.4948 177.919 19.5078 178.004C19.5273 178.082 19.5371 178.16 19.5371 178.238C19.5371 178.362 19.5241 178.486 19.498 178.609C19.472 178.733 19.4264 178.847 19.3613 178.951C19.2962 179.049 19.2083 179.13 19.0977 179.195C18.987 179.267 18.847 179.309 18.6777 179.322C17.877 179.4 17.1445 179.459 16.4805 179.498C15.8229 179.537 15.2891 179.592 14.8789 179.664ZM27.9844 176.861C28.1732 176.699 28.3587 176.617 28.541 176.617C28.6452 176.617 28.7396 176.643 28.8242 176.695C28.9089 176.747 29.0033 176.829 29.1074 176.939C29.2051 177.089 29.2734 177.213 29.3125 177.311C29.3581 177.402 29.3809 177.493 29.3809 177.584C29.3809 177.779 29.2832 177.965 29.0879 178.141C28.7754 178.401 28.4368 178.635 28.0723 178.844C27.7077 179.046 27.3268 179.218 26.9297 179.361C26.5326 179.505 26.1224 179.612 25.6992 179.684C25.276 179.762 24.8561 179.801 24.4395 179.801C23.9121 179.801 23.4173 179.732 22.9551 179.596C22.4928 179.465 22.0794 179.277 21.7148 179.029C21.3568 178.782 21.054 178.486 20.8066 178.141C20.5592 177.789 20.3835 177.395 20.2793 176.959C20.2207 176.777 20.1654 176.66 20.1133 176.607C20.0677 176.549 19.9896 176.52 19.8789 176.52C19.638 176.52 19.4525 176.461 19.3223 176.344C19.1921 176.227 19.127 176.057 19.127 175.836C19.127 175.745 19.1335 175.686 19.1465 175.66L19.166 175.465C19.1986 175.23 19.2604 175.061 19.3516 174.957C19.4492 174.853 19.599 174.801 19.8008 174.801H19.9473C20.2207 174.801 20.4128 174.674 20.5234 174.42C20.7253 173.971 20.9824 173.561 21.2949 173.189C21.6074 172.818 21.959 172.503 22.3496 172.242C22.7402 171.975 23.1569 171.77 23.5996 171.627C24.0488 171.477 24.5046 171.402 24.9668 171.402C25.4486 171.402 25.8978 171.474 26.3145 171.617C26.7376 171.754 27.1055 171.946 27.418 172.193C27.7305 172.441 27.9746 172.73 28.1504 173.062C28.3327 173.395 28.4238 173.753 28.4238 174.137C28.4238 174.404 28.3717 174.648 28.2676 174.869C28.1634 175.09 28.0137 175.286 27.8184 175.455C27.623 175.618 27.3854 175.751 27.1055 175.855C26.832 175.96 26.5195 176.028 26.168 176.061L22.7793 176.402C22.6491 176.402 22.5417 176.435 22.457 176.5C22.3789 176.565 22.3398 176.653 22.3398 176.764C22.3398 176.933 22.4017 177.096 22.5254 177.252C22.6556 177.408 22.8249 177.548 23.0332 177.672C23.248 177.789 23.4922 177.883 23.7656 177.955C24.0456 178.027 24.332 178.062 24.625 178.062C24.9049 178.062 25.1914 178.036 25.4844 177.984C25.7839 177.926 26.0768 177.844 26.3633 177.74C26.6562 177.636 26.9395 177.512 27.2129 177.369C27.4863 177.219 27.7435 177.05 27.9844 176.861ZM25.8066 174.342C25.9043 174.322 25.9889 174.277 26.0605 174.205C26.1322 174.127 26.168 174.033 26.168 173.922C26.168 173.824 26.1322 173.733 26.0605 173.648C25.9889 173.564 25.8913 173.489 25.7676 173.424C25.6439 173.352 25.5007 173.297 25.3379 173.258C25.1751 173.219 25.0026 173.199 24.8203 173.199C24.5534 173.199 24.2799 173.238 24 173.316C23.7201 173.395 23.4661 173.499 23.2383 173.629C23.0104 173.753 22.8249 173.893 22.6816 174.049C22.5384 174.199 22.4668 174.348 22.4668 174.498C22.4668 174.648 22.5579 174.723 22.7402 174.723C22.8509 174.723 23.0299 174.71 23.2773 174.684C23.5247 174.658 23.7982 174.628 24.0977 174.596C24.3971 174.557 24.6999 174.514 25.0059 174.469C25.3118 174.423 25.5788 174.381 25.8066 174.342ZM30.875 179.42C30.8294 178.554 30.7546 177.757 30.6504 177.027C30.5527 176.292 30.4486 175.65 30.3379 175.104C30.2337 174.557 30.1393 174.114 30.0547 173.775C29.9766 173.437 29.9375 173.225 29.9375 173.141C29.9375 173.017 29.9831 172.896 30.0742 172.779C30.1719 172.662 30.2923 172.561 30.4355 172.477C30.5788 172.385 30.7318 172.314 30.8945 172.262C31.0638 172.21 31.2168 172.184 31.3535 172.184C31.4642 172.184 31.5586 172.203 31.6367 172.242C31.7214 172.281 31.7799 172.346 31.8125 172.438C31.8451 172.548 31.8743 172.665 31.9004 172.789C31.9329 172.906 31.9655 173.049 31.998 173.219C32.0371 173.46 32.0892 173.58 32.1543 173.58C32.2259 173.58 32.3073 173.473 32.3984 173.258C32.5286 172.958 32.6686 172.711 32.8184 172.516C32.9681 172.32 33.1276 172.167 33.2969 172.057C33.4727 171.939 33.6517 171.858 33.834 171.812C34.0228 171.767 34.2181 171.744 34.4199 171.744C35.0319 171.744 35.5495 171.985 35.9727 172.467C36.4023 172.949 36.7376 173.645 36.9785 174.557C37.0111 174.661 37.0404 174.729 37.0664 174.762C37.0924 174.788 37.1217 174.801 37.1543 174.801C37.1868 174.801 37.2194 174.788 37.252 174.762C37.291 174.729 37.3268 174.667 37.3594 174.576C37.5156 174.153 37.6979 173.795 37.9062 173.502C38.1146 173.202 38.3294 172.962 38.5508 172.779C38.7786 172.59 39.0098 172.454 39.2441 172.369C39.4785 172.285 39.7031 172.242 39.918 172.242C40.3151 172.242 40.6732 172.389 40.9922 172.682C41.3177 172.968 41.6042 173.414 41.8516 174.02C42.1055 174.618 42.3236 175.38 42.5059 176.305C42.6947 177.223 42.8509 178.313 42.9746 179.576C42.9746 179.928 42.8672 180.172 42.6523 180.309C42.4375 180.452 42.1445 180.523 41.7734 180.523C41.5326 180.523 41.3438 180.471 41.207 180.367C41.0703 180.263 40.9922 180.126 40.9727 179.957C40.888 179.052 40.7936 178.248 40.6895 177.545C40.5918 176.835 40.4844 176.24 40.3672 175.758C40.25 175.27 40.1198 174.898 39.9766 174.645C39.8398 174.391 39.6868 174.264 39.5176 174.264C39.4329 174.264 39.3255 174.326 39.1953 174.449C39.0716 174.573 38.9382 174.801 38.7949 175.133C38.6517 175.458 38.502 175.908 38.3457 176.48C38.1895 177.047 38.0397 177.773 37.8965 178.658C37.8574 178.906 37.737 179.094 37.5352 179.225C37.3398 179.355 37.099 179.42 36.8125 179.42C36.4805 179.42 36.2493 179.368 36.1191 179.264C35.9954 179.16 35.9271 178.984 35.9141 178.736C35.888 178.307 35.8424 177.88 35.7773 177.457C35.7188 177.027 35.6439 176.62 35.5527 176.236C35.4616 175.846 35.3607 175.488 35.25 175.162C35.1393 174.83 35.0221 174.544 34.8984 174.303C34.7747 174.055 34.6478 173.863 34.5176 173.727C34.3874 173.59 34.2604 173.521 34.1367 173.521C33.974 173.521 33.8145 173.635 33.6582 173.863C33.5085 174.091 33.3717 174.413 33.248 174.83C33.1309 175.247 33.0365 175.748 32.9648 176.334C32.8932 176.92 32.8574 177.574 32.8574 178.297C32.8574 178.421 32.8607 178.544 32.8672 178.668C32.8737 178.785 32.877 178.909 32.877 179.039C32.877 179.234 32.8444 179.394 32.7793 179.518C32.7207 179.641 32.6328 179.739 32.5156 179.811C32.4049 179.882 32.2747 179.931 32.125 179.957C31.9753 179.983 31.8125 179.996 31.6367 179.996C31.474 179.996 31.3438 179.983 31.2461 179.957C31.1484 179.938 31.0736 179.905 31.0215 179.859C30.9694 179.814 30.9336 179.752 30.9141 179.674C30.8945 179.602 30.8815 179.518 30.875 179.42ZM44.332 175.758C44.332 175.647 44.3451 175.523 44.3711 175.387C44.3971 175.25 44.4102 175.1 44.4102 174.938C44.4102 174.827 44.3613 174.742 44.2637 174.684C44.1725 174.625 44.0684 174.56 43.9512 174.488C43.834 174.417 43.7266 174.326 43.6289 174.215C43.5378 174.104 43.4922 173.945 43.4922 173.736C43.4922 173.587 43.5312 173.437 43.6094 173.287C43.694 173.137 43.8145 173.001 43.9707 172.877C44.3548 172.59 44.752 172.333 45.1621 172.105C45.5788 171.878 45.9922 171.686 46.4023 171.529C46.819 171.373 47.2292 171.253 47.6328 171.168C48.0365 171.083 48.4238 171.041 48.7949 171.041C49.4199 171.041 50.0059 171.158 50.5527 171.393C51.1061 171.62 51.5846 171.936 51.9883 172.34C52.3984 172.737 52.7207 173.206 52.9551 173.746C53.196 174.28 53.3164 174.853 53.3164 175.465C53.3164 176.064 53.1895 176.633 52.9355 177.174C52.6882 177.708 52.3529 178.176 51.9297 178.58C51.5065 178.984 51.0085 179.303 50.4355 179.537C49.8691 179.778 49.2702 179.898 48.6387 179.898C48.0202 179.898 47.4473 179.794 46.9199 179.586C46.3926 179.378 45.9368 179.091 45.5527 178.727C45.1686 178.355 44.8691 177.919 44.6543 177.418C44.4395 176.91 44.332 176.357 44.332 175.758ZM48.8535 178.141C49.127 178.141 49.4102 178.085 49.7031 177.975C49.9961 177.864 50.263 177.704 50.5039 177.496C50.7513 177.281 50.9531 177.021 51.1094 176.715C51.2721 176.409 51.3535 176.064 51.3535 175.68C51.3535 175.289 51.2819 174.924 51.1387 174.586C50.9954 174.247 50.7969 173.954 50.543 173.707C50.2956 173.453 49.9993 173.255 49.6543 173.111C49.3158 172.968 48.9479 172.896 48.5508 172.896C47.8281 172.896 47.2747 173.085 46.8906 173.463C46.5065 173.834 46.3145 174.407 46.3145 175.182C46.3145 175.605 46.3763 175.999 46.5 176.363C46.6302 176.721 46.8092 177.034 47.0371 177.301C47.265 177.561 47.5319 177.766 47.8379 177.916C48.1504 178.066 48.4889 178.141 48.8535 178.141ZM54.7617 171.119C54.7617 171.021 54.804 170.927 54.8887 170.836C54.9733 170.738 55.084 170.654 55.2207 170.582C55.3574 170.504 55.5104 170.442 55.6797 170.396C55.8555 170.344 56.0312 170.318 56.207 170.318C56.3047 170.318 56.3861 170.344 56.4512 170.396C56.5228 170.449 56.5846 170.549 56.6367 170.699C56.6888 170.842 56.7344 171.048 56.7734 171.314C56.819 171.575 56.8613 171.917 56.9004 172.34C56.9264 172.47 56.9492 172.571 56.9688 172.643C56.9948 172.708 57.0273 172.74 57.0664 172.74C57.125 172.74 57.1836 172.639 57.2422 172.438C57.7174 171.064 58.4043 170.377 59.3027 170.377C59.7194 170.377 60.097 170.507 60.4355 170.768C60.7806 171.028 61.0996 171.454 61.3926 172.047C61.6921 172.633 61.9753 173.408 62.2422 174.371C62.5091 175.328 62.776 176.51 63.043 177.916C63.056 177.988 63.0658 178.053 63.0723 178.111C63.0788 178.17 63.082 178.225 63.082 178.277C63.082 178.427 63.0462 178.557 62.9746 178.668C62.9095 178.772 62.8216 178.86 62.7109 178.932C62.6003 178.997 62.4766 179.046 62.3398 179.078C62.2031 179.117 62.0664 179.137 61.9297 179.137C61.6562 179.137 61.4577 179.107 61.334 179.049C61.2168 178.99 61.1419 178.88 61.1094 178.717C60.9206 177.727 60.735 176.848 60.5527 176.08C60.377 175.312 60.2012 174.667 60.0254 174.146C59.8561 173.619 59.6868 173.219 59.5176 172.945C59.3483 172.672 59.179 172.535 59.0098 172.535C58.8405 172.535 58.681 172.643 58.5312 172.857C58.388 173.066 58.248 173.395 58.1113 173.844C57.9746 174.293 57.8411 174.863 57.7109 175.553C57.5872 176.243 57.4668 177.066 57.3496 178.023C57.3171 178.284 57.1868 178.492 56.959 178.648C56.7311 178.805 56.4414 178.883 56.0898 178.883C55.8555 178.883 55.6764 178.834 55.5527 178.736C55.429 178.639 55.3607 178.505 55.3477 178.336C55.2891 176.982 55.224 175.868 55.1523 174.996C55.0872 174.117 55.0254 173.414 54.9668 172.887C54.9082 172.353 54.8594 171.956 54.8203 171.695C54.7812 171.435 54.7617 171.243 54.7617 171.119ZM70.2402 170.465C70.5983 170.465 70.9434 170.52 71.2754 170.631C71.6074 170.742 71.9004 170.895 72.1543 171.09C72.4082 171.285 72.61 171.52 72.7598 171.793C72.916 172.066 72.9941 172.369 72.9941 172.701C72.9941 172.838 72.9616 172.971 72.8965 173.102C72.8379 173.225 72.7565 173.336 72.6523 173.434C72.5482 173.525 72.4277 173.6 72.291 173.658C72.1608 173.71 72.0241 173.736 71.8809 173.736C71.8678 173.736 71.8548 173.74 71.8418 173.746C71.8353 173.746 71.8255 173.746 71.8125 173.746C71.7995 173.753 71.7865 173.756 71.7734 173.756L71.8125 174.537C71.8385 175.468 71.9688 176.148 72.2031 176.578C72.444 177.008 72.7565 177.223 73.1406 177.223C73.2773 177.223 73.3978 177.21 73.502 177.184C73.6126 177.158 73.7135 177.128 73.8047 177.096C73.9023 177.057 73.9935 177.024 74.0781 176.998C74.1628 176.972 74.2474 176.959 74.332 176.959C74.4818 176.959 74.612 177.024 74.7227 177.154C74.8398 177.285 74.8984 177.441 74.8984 177.623C74.8984 177.805 74.8268 177.988 74.6836 178.17C74.5469 178.352 74.3646 178.518 74.1367 178.668C73.9089 178.811 73.6517 178.928 73.3652 179.02C73.0788 179.111 72.7891 179.156 72.4961 179.156C71.9883 179.156 71.5423 178.948 71.1582 178.531C70.7741 178.108 70.5007 177.49 70.3379 176.676C70.2988 176.546 70.2467 176.48 70.1816 176.48C70.1035 176.48 70.0352 176.52 69.9766 176.598C69.332 177.411 68.6452 178.023 67.916 178.434C67.1868 178.837 66.4674 179.039 65.7578 179.039C65.4258 179.039 65.1263 178.99 64.8594 178.893C64.5924 178.795 64.3646 178.658 64.1758 178.482C63.9935 178.3 63.8503 178.082 63.7461 177.828C63.6484 177.568 63.5996 177.278 63.5996 176.959C63.5996 176.51 63.6973 176.038 63.8926 175.543C64.0944 175.048 64.3646 174.56 64.7031 174.078C65.0417 173.596 65.4323 173.137 65.875 172.701C66.3242 172.265 66.793 171.881 67.2812 171.549C67.776 171.217 68.2773 170.953 68.7852 170.758C69.293 170.562 69.778 170.465 70.2402 170.465ZM69.918 173.844C70.0352 173.622 70.1426 173.463 70.2402 173.365C70.3379 173.261 70.4779 173.193 70.6602 173.16C70.8034 173.141 70.875 173.095 70.875 173.023C70.875 172.971 70.8555 172.916 70.8164 172.857C70.6927 172.688 70.5625 172.542 70.4258 172.418C70.2891 172.288 70.1068 172.223 69.8789 172.223C69.6315 172.223 69.3548 172.294 69.0488 172.438C68.7428 172.581 68.4303 172.773 68.1113 173.014C67.7988 173.248 67.4896 173.518 67.1836 173.824C66.8841 174.124 66.6172 174.433 66.3828 174.752C66.1484 175.071 65.9596 175.387 65.8164 175.699C65.6732 176.012 65.6016 176.292 65.6016 176.539C65.6016 176.76 65.6602 176.933 65.7773 177.057C65.901 177.18 66.0671 177.242 66.2754 177.242C66.8092 177.242 67.3919 176.959 68.0234 176.393C68.6549 175.826 69.2865 174.977 69.918 173.844ZM81.7539 171.861C81.7799 171.874 81.819 171.881 81.8711 171.881C82.0143 171.881 82.0859 171.786 82.0859 171.598V168.561C82.0859 168.176 82.1706 167.903 82.3398 167.74C82.5156 167.577 82.8053 167.496 83.209 167.496C83.6191 167.496 83.9089 167.581 84.0781 167.75C84.2474 167.919 84.332 168.209 84.332 168.619C84.332 168.775 84.3223 169.007 84.3027 169.312C84.2832 169.612 84.2604 169.954 84.2344 170.338C84.2148 170.722 84.1953 171.135 84.1758 171.578C84.1562 172.014 84.1465 172.447 84.1465 172.877C84.1465 173.541 84.1921 174.114 84.2832 174.596C84.3743 175.077 84.5046 175.478 84.6738 175.797C84.8431 176.109 85.0449 176.344 85.2793 176.5C85.5137 176.65 85.7773 176.725 86.0703 176.725C86.2331 176.725 86.3796 176.705 86.5098 176.666C86.6465 176.62 86.806 176.598 86.9883 176.598C87.1185 176.598 87.2259 176.666 87.3105 176.803C87.4017 176.933 87.4473 177.092 87.4473 177.281C87.4473 177.451 87.3952 177.61 87.291 177.76C87.1934 177.91 87.0566 178.04 86.8809 178.15C86.7116 178.261 86.513 178.349 86.2852 178.414C86.0573 178.473 85.8197 178.502 85.5723 178.502C85.0384 178.502 84.5501 178.339 84.1074 178.014C83.6647 177.682 83.3327 177.177 83.1113 176.5C83.0918 176.396 83.0592 176.344 83.0137 176.344C82.9616 176.344 82.9193 176.396 82.8867 176.5C82.7109 176.975 82.4798 177.405 82.1934 177.789C81.9134 178.167 81.5846 178.492 81.207 178.766C80.8359 179.033 80.4258 179.238 79.9766 179.381C79.5339 179.524 79.0651 179.596 78.5703 179.596C78.0495 179.596 77.571 179.508 77.1348 179.332C76.7051 179.163 76.334 178.925 76.0215 178.619C75.709 178.307 75.4648 177.942 75.2891 177.525C75.1133 177.102 75.0254 176.646 75.0254 176.158C75.0254 175.533 75.1556 174.944 75.416 174.391C75.6764 173.837 76.028 173.355 76.4707 172.945C76.9199 172.529 77.4408 172.2 78.0332 171.959C78.6257 171.718 79.2572 171.598 79.9277 171.598C80.2012 171.598 80.4909 171.62 80.7969 171.666C81.1029 171.705 81.4219 171.77 81.7539 171.861ZM78.9512 177.838C79.3223 177.838 79.651 177.757 79.9375 177.594C80.2305 177.431 80.4876 177.226 80.709 176.979C80.9368 176.725 81.1289 176.448 81.2852 176.148C81.4414 175.842 81.5684 175.546 81.666 175.26C81.7637 174.973 81.8353 174.716 81.8809 174.488C81.9264 174.26 81.9492 174.098 81.9492 174C81.9492 173.928 81.9297 173.867 81.8906 173.814C81.8516 173.756 81.793 173.71 81.7148 173.678C81.5391 173.632 81.3568 173.593 81.168 173.561C80.9792 173.521 80.7936 173.489 80.6113 173.463C80.429 173.437 80.2533 173.417 80.084 173.404C79.9212 173.391 79.7715 173.385 79.6348 173.385C79.2441 173.385 78.8893 173.443 78.5703 173.561C78.2513 173.678 77.9779 173.844 77.75 174.059C77.5286 174.273 77.3561 174.531 77.2324 174.83C77.1087 175.123 77.0469 175.445 77.0469 175.797C77.0469 176.109 77.0924 176.393 77.1836 176.646C77.2812 176.894 77.4115 177.105 77.5742 177.281C77.7435 177.457 77.9453 177.594 78.1797 177.691C78.4141 177.789 78.6712 177.838 78.9512 177.838ZM95.25 176.861C95.4388 176.699 95.6243 176.617 95.8066 176.617C95.9108 176.617 96.0052 176.643 96.0898 176.695C96.1745 176.747 96.2689 176.829 96.373 176.939C96.4707 177.089 96.5391 177.213 96.5781 177.311C96.6237 177.402 96.6465 177.493 96.6465 177.584C96.6465 177.779 96.5488 177.965 96.3535 178.141C96.041 178.401 95.7025 178.635 95.3379 178.844C94.9733 179.046 94.5924 179.218 94.1953 179.361C93.7982 179.505 93.388 179.612 92.9648 179.684C92.5417 179.762 92.1217 179.801 91.7051 179.801C91.1777 179.801 90.6829 179.732 90.2207 179.596C89.7585 179.465 89.3451 179.277 88.9805 179.029C88.6224 178.782 88.3197 178.486 88.0723 178.141C87.8249 177.789 87.6491 177.395 87.5449 176.959C87.4863 176.777 87.431 176.66 87.3789 176.607C87.3333 176.549 87.2552 176.52 87.1445 176.52C86.9036 176.52 86.7181 176.461 86.5879 176.344C86.4577 176.227 86.3926 176.057 86.3926 175.836C86.3926 175.745 86.3991 175.686 86.4121 175.66L86.4316 175.465C86.4642 175.23 86.526 175.061 86.6172 174.957C86.7148 174.853 86.8646 174.801 87.0664 174.801H87.2129C87.4863 174.801 87.6784 174.674 87.7891 174.42C87.9909 173.971 88.248 173.561 88.5605 173.189C88.873 172.818 89.2246 172.503 89.6152 172.242C90.0059 171.975 90.4225 171.77 90.8652 171.627C91.3145 171.477 91.7702 171.402 92.2324 171.402C92.7142 171.402 93.1634 171.474 93.5801 171.617C94.0033 171.754 94.3711 171.946 94.6836 172.193C94.9961 172.441 95.2402 172.73 95.416 173.062C95.5983 173.395 95.6895 173.753 95.6895 174.137C95.6895 174.404 95.6374 174.648 95.5332 174.869C95.429 175.09 95.2793 175.286 95.084 175.455C94.8887 175.618 94.651 175.751 94.3711 175.855C94.0977 175.96 93.7852 176.028 93.4336 176.061L90.0449 176.402C89.9147 176.402 89.8073 176.435 89.7227 176.5C89.6445 176.565 89.6055 176.653 89.6055 176.764C89.6055 176.933 89.6673 177.096 89.791 177.252C89.9212 177.408 90.0905 177.548 90.2988 177.672C90.5137 177.789 90.7578 177.883 91.0312 177.955C91.3112 178.027 91.5977 178.062 91.8906 178.062C92.1706 178.062 92.457 178.036 92.75 177.984C93.0495 177.926 93.3424 177.844 93.6289 177.74C93.9219 177.636 94.2051 177.512 94.4785 177.369C94.752 177.219 95.0091 177.05 95.25 176.861ZM93.0723 174.342C93.1699 174.322 93.2546 174.277 93.3262 174.205C93.3978 174.127 93.4336 174.033 93.4336 173.922C93.4336 173.824 93.3978 173.733 93.3262 173.648C93.2546 173.564 93.1569 173.489 93.0332 173.424C92.9095 173.352 92.7663 173.297 92.6035 173.258C92.4408 173.219 92.2682 173.199 92.0859 173.199C91.819 173.199 91.5456 173.238 91.2656 173.316C90.9857 173.395 90.7318 173.499 90.5039 173.629C90.276 173.753 90.0905 173.893 89.9473 174.049C89.804 174.199 89.7324 174.348 89.7324 174.498C89.7324 174.648 89.8236 174.723 90.0059 174.723C90.1165 174.723 90.2956 174.71 90.543 174.684C90.7904 174.658 91.0638 174.628 91.3633 174.596C91.6628 174.557 91.9655 174.514 92.2715 174.469C92.5775 174.423 92.8444 174.381 93.0723 174.342Z" fill="black"/>
<path d="M13.3359 200.559C13.2578 200.59 13.1816 200.605 13.1074 200.605C12.9199 200.605 12.791 200.494 12.7207 200.271C12.7012 200.213 12.6875 200.164 12.6797 200.125C12.6758 200.086 12.6738 200.051 12.6738 200.02C12.6738 199.836 12.7773 199.699 12.9844 199.609C13.3945 199.445 13.8125 199.312 14.2383 199.211C14.6641 199.109 15.0938 199.059 15.5273 199.059C15.7305 199.059 15.9297 199.08 16.125 199.123C16.3242 199.166 16.502 199.24 16.6582 199.346C16.8145 199.451 16.9414 199.592 17.0391 199.768C17.1367 199.943 17.1855 200.164 17.1855 200.43C17.1855 200.617 17.1465 200.797 17.0684 200.969C16.9941 201.141 16.8945 201.305 16.7695 201.461C16.6445 201.617 16.502 201.766 16.3418 201.906C16.1816 202.047 16.0176 202.176 15.8496 202.293C15.6816 202.41 15.5156 202.518 15.3516 202.615C15.1875 202.709 15.0391 202.791 14.9062 202.861C14.793 202.928 14.7363 202.996 14.7363 203.066C14.7363 203.148 14.7969 203.213 14.918 203.26C15.3359 203.408 15.7637 203.547 16.2012 203.676C16.6387 203.805 17.082 203.949 17.5312 204.109C17.7422 204.188 17.8477 204.309 17.8477 204.473C17.8477 204.551 17.8242 204.631 17.7773 204.713C17.7344 204.791 17.6855 204.863 17.6309 204.93C17.5176 205.098 17.377 205.182 17.209 205.182C17.1504 205.182 17.0781 205.17 16.9922 205.146C16.7383 205.049 16.4648 204.947 16.1719 204.842C15.8828 204.736 15.5859 204.633 15.2812 204.531C14.9805 204.426 14.6836 204.326 14.3906 204.232C14.0977 204.135 13.8262 204.047 13.5762 203.969C13.4863 203.945 13.4258 203.934 13.3945 203.934C13.3633 203.934 13.3379 203.941 13.3184 203.957C13.3027 203.969 13.2949 203.996 13.2949 204.039C13.2949 204.051 13.2969 204.066 13.3008 204.086C13.3047 204.102 13.3066 204.119 13.3066 204.139C13.3184 204.197 13.332 204.275 13.3477 204.373C13.3672 204.467 13.3848 204.564 13.4004 204.666C13.4199 204.768 13.4355 204.865 13.4473 204.959C13.459 205.049 13.4648 205.123 13.4648 205.182C13.4648 205.4 13.3457 205.553 13.1074 205.639L12.8438 205.721C12.8047 205.732 12.7695 205.74 12.7383 205.744C12.707 205.752 12.6738 205.756 12.6387 205.756C12.4238 205.756 12.2988 205.623 12.2637 205.357C12.1699 204.646 12.0488 203.945 11.9004 203.254C11.7559 202.562 11.5898 201.873 11.4023 201.186C11.3906 201.146 11.3828 201.113 11.3789 201.086C11.3789 201.055 11.3789 201.027 11.3789 201.004C11.3789 200.797 11.4902 200.656 11.7129 200.582C11.7949 200.555 11.8613 200.533 11.9121 200.518C11.9668 200.502 12.0098 200.49 12.041 200.482C12.0762 200.471 12.1016 200.463 12.1172 200.459C12.1367 200.455 12.1543 200.453 12.1699 200.453C12.3809 200.453 12.5176 200.572 12.5801 200.811C12.6621 201.115 12.7383 201.41 12.8086 201.695C12.8828 201.98 12.9492 202.262 13.0078 202.539C13.0391 202.676 13.0957 202.744 13.1777 202.744C13.2012 202.744 13.2285 202.74 13.2598 202.732C13.291 202.721 13.3281 202.705 13.3711 202.686C13.4961 202.619 13.6465 202.537 13.8223 202.439C14.002 202.342 14.1875 202.234 14.3789 202.117C14.5742 201.996 14.7656 201.869 14.9531 201.736C15.1445 201.604 15.3145 201.471 15.4629 201.338C15.6152 201.205 15.7383 201.074 15.832 200.945C15.9258 200.816 15.9727 200.695 15.9727 200.582C15.9727 200.512 15.9609 200.447 15.9375 200.389C15.918 200.33 15.8789 200.279 15.8203 200.236C15.7617 200.193 15.6816 200.16 15.5801 200.137C15.4824 200.113 15.3574 200.102 15.2051 200.102C15.0566 200.102 14.9004 200.115 14.7363 200.143C14.5762 200.166 14.416 200.199 14.2559 200.242C14.0957 200.285 13.9375 200.334 13.7812 200.389C13.625 200.443 13.4766 200.5 13.3359 200.559ZM22.9512 203.717C23.0645 203.619 23.1758 203.57 23.2852 203.57C23.3477 203.57 23.4043 203.586 23.4551 203.617C23.5059 203.648 23.5625 203.697 23.625 203.764C23.6836 203.854 23.7246 203.928 23.748 203.986C23.7754 204.041 23.7891 204.096 23.7891 204.15C23.7891 204.268 23.7305 204.379 23.6133 204.484C23.4258 204.641 23.2227 204.781 23.0039 204.906C22.7852 205.027 22.5566 205.131 22.3184 205.217C22.0801 205.303 21.834 205.367 21.5801 205.41C21.3262 205.457 21.0742 205.48 20.8242 205.48C20.5078 205.48 20.2109 205.439 19.9336 205.357C19.6562 205.279 19.4082 205.166 19.1895 205.018C18.9746 204.869 18.793 204.691 18.6445 204.484C18.4961 204.273 18.3906 204.037 18.3281 203.775C18.293 203.666 18.2598 203.596 18.2285 203.564C18.2012 203.529 18.1543 203.512 18.0879 203.512C17.9434 203.512 17.832 203.477 17.7539 203.406C17.6758 203.336 17.6367 203.234 17.6367 203.102C17.6367 203.047 17.6406 203.012 17.6484 202.996L17.6602 202.879C17.6797 202.738 17.7168 202.637 17.7715 202.574C17.8301 202.512 17.9199 202.48 18.041 202.48H18.1289C18.293 202.48 18.4082 202.404 18.4746 202.252C18.5957 201.982 18.75 201.736 18.9375 201.514C19.125 201.291 19.3359 201.102 19.5703 200.945C19.8047 200.785 20.0547 200.662 20.3203 200.576C20.5898 200.486 20.8633 200.441 21.1406 200.441C21.4297 200.441 21.6992 200.484 21.9492 200.57C22.2031 200.652 22.4238 200.768 22.6113 200.916C22.7988 201.064 22.9453 201.238 23.0508 201.438C23.1602 201.637 23.2148 201.852 23.2148 202.082C23.2148 202.242 23.1836 202.389 23.1211 202.521C23.0586 202.654 22.9688 202.771 22.8516 202.873C22.7344 202.971 22.5918 203.051 22.4238 203.113C22.2598 203.176 22.0723 203.217 21.8613 203.236L19.8281 203.441C19.75 203.441 19.6855 203.461 19.6348 203.5C19.5879 203.539 19.5645 203.592 19.5645 203.658C19.5645 203.76 19.6016 203.857 19.6758 203.951C19.7539 204.045 19.8555 204.129 19.9805 204.203C20.1094 204.273 20.2559 204.33 20.4199 204.373C20.5879 204.416 20.7598 204.438 20.9355 204.438C21.1035 204.438 21.2754 204.422 21.4512 204.391C21.6309 204.355 21.8066 204.307 21.9785 204.244C22.1543 204.182 22.3242 204.107 22.4883 204.021C22.6523 203.932 22.8066 203.83 22.9512 203.717ZM21.6445 202.205C21.7031 202.193 21.7539 202.166 21.7969 202.123C21.8398 202.076 21.8613 202.02 21.8613 201.953C21.8613 201.895 21.8398 201.84 21.7969 201.789C21.7539 201.738 21.6953 201.693 21.6211 201.654C21.5469 201.611 21.4609 201.578 21.3633 201.555C21.2656 201.531 21.1621 201.52 21.0527 201.52C20.8926 201.52 20.7285 201.543 20.5605 201.59C20.3926 201.637 20.2402 201.699 20.1035 201.777C19.9668 201.852 19.8555 201.936 19.7695 202.029C19.6836 202.119 19.6406 202.209 19.6406 202.299C19.6406 202.389 19.6953 202.434 19.8047 202.434C19.8711 202.434 19.9785 202.426 20.127 202.41C20.2754 202.395 20.4395 202.377 20.6191 202.357C20.7988 202.334 20.9805 202.309 21.1641 202.281C21.3477 202.254 21.5078 202.229 21.6445 202.205ZM23.666 201.771C23.5762 201.764 23.5039 201.705 23.4492 201.596C23.3945 201.486 23.3672 201.365 23.3672 201.232C23.3672 201.17 23.373 201.109 23.3848 201.051C23.3926 200.988 23.4082 200.934 23.4316 200.887C23.4551 200.84 23.4844 200.803 23.5195 200.775C23.5547 200.744 23.5957 200.729 23.6426 200.729C23.7871 200.729 23.9531 200.725 24.1406 200.717C24.3281 200.705 24.5293 200.693 24.7441 200.682C24.8535 200.67 24.9141 200.605 24.9258 200.488C24.9609 199.922 25.0098 199.434 25.0723 199.023C25.1348 198.613 25.2109 198.268 25.3008 197.986C25.3906 197.701 25.4922 197.471 25.6055 197.295C25.7227 197.119 25.8516 196.984 25.9922 196.891C26.0352 196.859 26.0859 196.828 26.1445 196.797C26.2031 196.762 26.2578 196.744 26.3086 196.744C26.4062 196.744 26.5078 196.77 26.6133 196.82C26.7227 196.867 26.8223 196.93 26.9121 197.008C27.0059 197.082 27.082 197.168 27.1406 197.266C27.1992 197.359 27.2285 197.453 27.2285 197.547C27.2285 197.582 27.2207 197.611 27.2051 197.635C27.1895 197.654 27.1699 197.674 27.1465 197.693C26.9941 197.807 26.8594 197.934 26.7422 198.074C26.625 198.215 26.5254 198.387 26.4434 198.59C26.3613 198.793 26.293 199.037 26.2383 199.322C26.1836 199.607 26.1426 199.951 26.1152 200.354C26.1152 200.416 26.125 200.463 26.1445 200.494C26.168 200.521 26.209 200.535 26.2676 200.535C26.4199 200.535 26.5723 200.523 26.7246 200.5C26.8809 200.477 27.0293 200.453 27.1699 200.43C27.3105 200.402 27.4434 200.377 27.5684 200.354C27.6934 200.33 27.8047 200.318 27.9023 200.318C27.9727 200.318 28.0234 200.361 28.0547 200.447C28.0898 200.529 28.1074 200.631 28.1074 200.752C28.1074 200.822 28.1016 200.895 28.0898 200.969C28.0781 201.043 28.0586 201.109 28.0312 201.168C28.0078 201.227 27.9766 201.277 27.9375 201.32C27.8984 201.359 27.8496 201.383 27.791 201.391L26.2324 201.555C26.1504 201.566 26.0996 201.6 26.0801 201.654C26.0645 201.709 26.0566 201.785 26.0566 201.883C26.0566 202.746 26.0781 203.488 26.1211 204.109C26.1641 204.73 26.2109 205.252 26.2617 205.674C26.3164 206.1 26.3652 206.434 26.4082 206.676C26.4512 206.922 26.4727 207.1 26.4727 207.209C26.4727 207.291 26.4395 207.365 26.373 207.432C26.3105 207.498 26.2285 207.555 26.127 207.602C26.0293 207.648 25.9219 207.684 25.8047 207.707C25.6875 207.734 25.5781 207.748 25.4766 207.748C25.3789 207.748 25.291 207.73 25.2129 207.695C25.1387 207.664 25.0957 207.609 25.084 207.531C25.0449 207.258 25.0117 206.957 24.9844 206.629C24.957 206.305 24.9336 205.943 24.9141 205.545C24.8984 205.15 24.8867 204.719 24.8789 204.25C24.8711 203.777 24.8672 203.26 24.8672 202.697C24.8672 202.553 24.8672 202.412 24.8672 202.275C24.8672 202.139 24.8711 202.002 24.8789 201.865C24.8789 201.748 24.8145 201.689 24.6855 201.689L23.666 201.771ZM31.0195 200.617C30.875 200.617 30.748 200.656 30.6387 200.734C30.5293 200.809 30.4355 200.914 30.3574 201.051C30.2793 201.184 30.2148 201.342 30.1641 201.525C30.1133 201.705 30.0723 201.902 30.041 202.117C30.0098 202.332 29.9883 202.557 29.9766 202.791C29.9648 203.025 29.959 203.262 29.959 203.5C29.959 203.812 29.9707 204.121 29.9941 204.426C30.0215 204.727 30.0352 205.006 30.0352 205.264C30.0352 205.432 29.9727 205.562 29.8477 205.656C29.7227 205.754 29.5449 205.803 29.3145 205.803C29.2715 205.803 29.2227 205.799 29.168 205.791C29.1133 205.783 29.0605 205.768 29.0098 205.744C28.9629 205.721 28.9199 205.688 28.8809 205.645C28.8457 205.605 28.8262 205.551 28.8223 205.48C28.7871 205.137 28.7363 204.785 28.6699 204.426C28.6035 204.066 28.5195 203.709 28.418 203.354C28.3203 202.994 28.2012 202.639 28.0605 202.287C27.9238 201.936 27.7656 201.592 27.5859 201.256C27.5547 201.197 27.5273 201.143 27.5039 201.092C27.4844 201.041 27.4746 200.992 27.4746 200.945C27.4746 200.887 27.5 200.824 27.5508 200.758C27.6055 200.688 27.6719 200.623 27.75 200.564C27.832 200.506 27.9199 200.459 28.0137 200.424C28.1113 200.385 28.2051 200.365 28.2949 200.365C28.4434 200.365 28.5742 200.469 28.6875 200.676C28.8008 200.879 28.9062 201.205 29.0039 201.654C29.0234 201.732 29.0391 201.787 29.0508 201.818C29.0625 201.85 29.0781 201.865 29.0977 201.865C29.1406 201.865 29.168 201.799 29.1797 201.666C29.2266 201.295 29.3066 200.977 29.4199 200.711C29.5332 200.441 29.6738 200.221 29.8418 200.049C30.0137 199.873 30.209 199.744 30.4277 199.662C30.6504 199.58 30.8945 199.539 31.1602 199.539C31.3125 199.539 31.4668 199.553 31.623 199.58C31.7793 199.607 31.9199 199.648 32.0449 199.703C32.1699 199.758 32.2715 199.824 32.3496 199.902C32.4277 199.98 32.4668 200.068 32.4668 200.166C32.4668 200.236 32.4512 200.32 32.4199 200.418C32.3926 200.512 32.3555 200.604 32.3086 200.693C32.2617 200.779 32.207 200.854 32.1445 200.916C32.0859 200.975 32.0254 201.004 31.9629 201.004C31.8926 201.004 31.8242 200.984 31.7578 200.945C31.6914 200.902 31.6191 200.857 31.541 200.811C31.4668 200.764 31.3867 200.721 31.3008 200.682C31.2188 200.639 31.125 200.617 31.0195 200.617ZM37.084 203.717C37.1973 203.619 37.3086 203.57 37.418 203.57C37.4805 203.57 37.5371 203.586 37.5879 203.617C37.6387 203.648 37.6953 203.697 37.7578 203.764C37.8164 203.854 37.8574 203.928 37.8809 203.986C37.9082 204.041 37.9219 204.096 37.9219 204.15C37.9219 204.268 37.8633 204.379 37.7461 204.484C37.5586 204.641 37.3555 204.781 37.1367 204.906C36.918 205.027 36.6895 205.131 36.4512 205.217C36.2129 205.303 35.9668 205.367 35.7129 205.41C35.459 205.457 35.207 205.48 34.957 205.48C34.6406 205.48 34.3438 205.439 34.0664 205.357C33.7891 205.279 33.541 205.166 33.3223 205.018C33.1074 204.869 32.9258 204.691 32.7773 204.484C32.6289 204.273 32.5234 204.037 32.4609 203.775C32.4258 203.666 32.3926 203.596 32.3613 203.564C32.334 203.529 32.2871 203.512 32.2207 203.512C32.0762 203.512 31.9648 203.477 31.8867 203.406C31.8086 203.336 31.7695 203.234 31.7695 203.102C31.7695 203.047 31.7734 203.012 31.7812 202.996L31.793 202.879C31.8125 202.738 31.8496 202.637 31.9043 202.574C31.9629 202.512 32.0527 202.48 32.1738 202.48H32.2617C32.4258 202.48 32.541 202.404 32.6074 202.252C32.7285 201.982 32.8828 201.736 33.0703 201.514C33.2578 201.291 33.4688 201.102 33.7031 200.945C33.9375 200.785 34.1875 200.662 34.4531 200.576C34.7227 200.486 34.9961 200.441 35.2734 200.441C35.5625 200.441 35.832 200.484 36.082 200.57C36.3359 200.652 36.5566 200.768 36.7441 200.916C36.9316 201.064 37.0781 201.238 37.1836 201.438C37.293 201.637 37.3477 201.852 37.3477 202.082C37.3477 202.242 37.3164 202.389 37.2539 202.521C37.1914 202.654 37.1016 202.771 36.9844 202.873C36.8672 202.971 36.7246 203.051 36.5566 203.113C36.3926 203.176 36.2051 203.217 35.9941 203.236L33.9609 203.441C33.8828 203.441 33.8184 203.461 33.7676 203.5C33.7207 203.539 33.6973 203.592 33.6973 203.658C33.6973 203.76 33.7344 203.857 33.8086 203.951C33.8867 204.045 33.9883 204.129 34.1133 204.203C34.2422 204.273 34.3887 204.33 34.5527 204.373C34.7207 204.416 34.8926 204.438 35.0684 204.438C35.2363 204.438 35.4082 204.422 35.584 204.391C35.7637 204.355 35.9395 204.307 36.1113 204.244C36.2871 204.182 36.457 204.107 36.6211 204.021C36.7852 203.932 36.9395 203.83 37.084 203.717ZM35.7773 202.205C35.8359 202.193 35.8867 202.166 35.9297 202.123C35.9727 202.076 35.9941 202.02 35.9941 201.953C35.9941 201.895 35.9727 201.84 35.9297 201.789C35.8867 201.738 35.8281 201.693 35.7539 201.654C35.6797 201.611 35.5938 201.578 35.4961 201.555C35.3984 201.531 35.2949 201.52 35.1855 201.52C35.0254 201.52 34.8613 201.543 34.6934 201.59C34.5254 201.637 34.373 201.699 34.2363 201.777C34.0996 201.852 33.9883 201.936 33.9023 202.029C33.8164 202.119 33.7734 202.209 33.7734 202.299C33.7734 202.389 33.8281 202.434 33.9375 202.434C34.0039 202.434 34.1113 202.426 34.2598 202.41C34.4082 202.395 34.5723 202.377 34.752 202.357C34.9316 202.334 35.1133 202.309 35.2969 202.281C35.4805 202.254 35.6406 202.229 35.7773 202.205ZM39.7559 199.914C40.0176 199.914 40.2871 199.949 40.5645 200.02C40.8418 200.086 41.0957 200.174 41.3262 200.283C41.5566 200.389 41.7461 200.508 41.8945 200.641C42.043 200.773 42.1172 200.902 42.1172 201.027C42.1172 201.09 42.0898 201.16 42.0352 201.238C41.9805 201.312 41.9141 201.385 41.8359 201.455C41.7578 201.521 41.6719 201.578 41.5781 201.625C41.4883 201.668 41.4082 201.689 41.3379 201.689C41.2441 201.689 41.1387 201.65 41.0215 201.572C40.9082 201.494 40.7812 201.408 40.6406 201.314C40.5039 201.217 40.3535 201.129 40.1895 201.051C40.0254 200.973 39.8477 200.934 39.6562 200.934C39.5312 200.934 39.4277 200.965 39.3457 201.027C39.2676 201.086 39.2285 201.17 39.2285 201.279C39.2285 201.377 39.2754 201.477 39.3691 201.578C39.4629 201.676 39.5859 201.777 39.7383 201.883C39.8945 201.988 40.0703 202.1 40.2656 202.217C40.4609 202.334 40.6602 202.459 40.8633 202.592C41.0703 202.725 41.2715 202.869 41.4668 203.025C41.6621 203.182 41.8359 203.352 41.9883 203.535C42.1445 203.719 42.2695 203.92 42.3633 204.139C42.457 204.354 42.5039 204.588 42.5039 204.842C42.5039 205.061 42.4648 205.26 42.3867 205.439C42.3086 205.619 42.1973 205.773 42.0527 205.902C41.9082 206.031 41.7363 206.131 41.5371 206.201C41.3379 206.271 41.1191 206.307 40.8809 206.307C40.5801 206.307 40.3027 206.26 40.0488 206.166C39.7949 206.076 39.5762 205.951 39.3926 205.791C39.209 205.631 39.0645 205.439 38.959 205.217C38.8574 204.994 38.8066 204.75 38.8066 204.484C38.8066 204.141 38.8672 203.891 38.9883 203.734C39.1133 203.578 39.3086 203.5 39.5742 203.5C39.7383 203.5 39.8691 203.531 39.9668 203.594C40.0645 203.656 40.1133 203.732 40.1133 203.822C40.1133 203.869 40.1055 203.918 40.0898 203.969C40.0742 204.016 40.0566 204.066 40.0371 204.121C40.0215 204.172 40.0059 204.227 39.9902 204.285C39.9785 204.344 39.9727 204.402 39.9727 204.461C39.9727 204.562 39.9961 204.66 40.043 204.754C40.0898 204.848 40.1523 204.93 40.2305 205C40.3125 205.074 40.4062 205.133 40.5117 205.176C40.6172 205.219 40.7285 205.24 40.8457 205.24C41.1582 205.24 41.3145 205.111 41.3145 204.854C41.3145 204.65 41.2344 204.459 41.0742 204.279C40.9141 204.096 40.7129 203.918 40.4707 203.746C40.2285 203.57 39.9668 203.395 39.6855 203.219C39.4082 203.043 39.1484 202.859 38.9062 202.668C38.6641 202.477 38.4629 202.273 38.3027 202.059C38.1426 201.84 38.0625 201.604 38.0625 201.35C38.0625 201.139 38.1055 200.945 38.1914 200.77C38.2812 200.594 38.4023 200.443 38.5547 200.318C38.707 200.189 38.8848 200.09 39.0879 200.02C39.2949 199.949 39.5176 199.914 39.7559 199.914ZM42.5508 199.357C42.5508 198.936 42.8242 198.725 43.3711 198.725C43.4648 198.725 43.5469 198.75 43.6172 198.801C43.6875 198.852 43.7285 198.922 43.7402 199.012C43.7754 199.25 43.8066 199.486 43.834 199.721C43.8613 199.955 43.8867 200.219 43.9102 200.512C43.9375 200.801 43.9629 201.137 43.9863 201.52C44.0137 201.898 44.043 202.352 44.0742 202.879C44.0742 202.934 44.082 202.973 44.0977 202.996C44.1172 203.02 44.1387 203.031 44.1621 203.031C44.1973 203.031 44.2324 202.996 44.2676 202.926C44.4004 202.633 44.5488 202.371 44.7129 202.141C44.877 201.906 45.0527 201.709 45.2402 201.549C45.4277 201.385 45.625 201.262 45.832 201.18C46.043 201.094 46.2578 201.051 46.4766 201.051C46.7656 201.051 47.0273 201.133 47.2617 201.297C47.4961 201.461 47.6953 201.693 47.8594 201.994C48.0234 202.295 48.1504 202.66 48.2402 203.09C48.3301 203.516 48.375 203.992 48.375 204.52C48.375 204.664 48.3633 204.783 48.3398 204.877C48.3203 204.967 48.2852 205.039 48.2344 205.094C48.1836 205.148 48.1133 205.186 48.0234 205.205C47.9336 205.229 47.8223 205.24 47.6895 205.24C47.5059 205.24 47.373 205.205 47.291 205.135C47.2129 205.064 47.1738 204.955 47.1738 204.807C47.1738 204.439 47.1484 204.094 47.0977 203.77C47.0508 203.441 46.9844 203.154 46.8984 202.908C46.8125 202.662 46.7109 202.467 46.5938 202.322C46.4805 202.178 46.3574 202.105 46.2246 202.105C45.9238 202.105 45.623 202.35 45.3223 202.838C45.0254 203.326 44.7148 204.062 44.3906 205.047C44.3594 205.137 44.3242 205.211 44.2852 205.27C44.2461 205.328 44.1992 205.375 44.1445 205.41C44.0938 205.445 44.0312 205.469 43.957 205.48C43.8828 205.496 43.7949 205.504 43.6934 205.504C43.4863 205.504 43.3379 205.465 43.248 205.387C43.1621 205.309 43.1152 205.18 43.1074 205C43.084 204.32 43.041 203.672 42.9785 203.055C42.9199 202.434 42.8574 201.873 42.791 201.373C42.7285 200.869 42.6719 200.443 42.6211 200.096C42.5742 199.744 42.5508 199.498 42.5508 199.357ZM50.0391 199.023C49.9258 199.023 49.8184 199.008 49.7168 198.977C49.6191 198.941 49.5332 198.895 49.459 198.836C49.3887 198.773 49.332 198.701 49.2891 198.619C49.2461 198.537 49.2246 198.447 49.2246 198.35C49.2246 198.186 49.2891 198.053 49.418 197.951C49.5508 197.85 49.7266 197.799 49.9453 197.799C50.0469 197.799 50.1445 197.818 50.2383 197.857C50.332 197.893 50.4141 197.941 50.4844 198.004C50.5586 198.066 50.6172 198.141 50.6602 198.227C50.7031 198.309 50.7246 198.395 50.7246 198.484C50.7246 198.652 50.6621 198.785 50.5371 198.883C50.416 198.977 50.25 199.023 50.0391 199.023ZM49.2363 200.811C49.2363 200.674 49.2949 200.562 49.4121 200.477C49.5332 200.387 49.6914 200.342 49.8867 200.342C50.2383 200.342 50.4258 200.463 50.4492 200.705C50.4648 200.873 50.4805 201.062 50.4961 201.273C50.5156 201.484 50.5332 201.709 50.5488 201.947C50.5684 202.182 50.584 202.426 50.5957 202.68C50.6113 202.93 50.625 203.178 50.6367 203.424C50.6484 203.666 50.6582 203.9 50.666 204.127C50.6738 204.354 50.6777 204.561 50.6777 204.748C50.6777 204.943 50.6074 205.09 50.4668 205.188C50.3301 205.285 50.1289 205.334 49.8633 205.334C49.7422 205.334 49.6465 205.305 49.5762 205.246C49.5098 205.191 49.4766 205.109 49.4766 205C49.4766 204.461 49.4629 203.957 49.4355 203.488C49.4121 203.016 49.3848 202.596 49.3535 202.229C49.3262 201.861 49.2988 201.557 49.2715 201.314C49.248 201.068 49.2363 200.9 49.2363 200.811ZM51.8613 200.271C51.8613 200.213 51.8867 200.156 51.9375 200.102C51.9883 200.043 52.0547 199.992 52.1367 199.949C52.2188 199.902 52.3105 199.865 52.4121 199.838C52.5176 199.807 52.623 199.791 52.7285 199.791C52.7871 199.791 52.8359 199.807 52.875 199.838C52.918 199.869 52.9551 199.93 52.9863 200.02C53.0176 200.105 53.0449 200.229 53.0684 200.389C53.0957 200.545 53.1211 200.75 53.1445 201.004C53.1602 201.082 53.1738 201.143 53.1855 201.186C53.2012 201.225 53.2207 201.244 53.2441 201.244C53.2793 201.244 53.3145 201.184 53.3496 201.062C53.6348 200.238 54.0469 199.826 54.5859 199.826C54.8359 199.826 55.0625 199.904 55.2656 200.061C55.4727 200.217 55.6641 200.473 55.8398 200.828C56.0195 201.18 56.1895 201.645 56.3496 202.223C56.5098 202.797 56.6699 203.506 56.8301 204.35C56.8379 204.393 56.8438 204.432 56.8477 204.467C56.8516 204.502 56.8535 204.535 56.8535 204.566C56.8535 204.656 56.832 204.734 56.7891 204.801C56.75 204.863 56.6973 204.916 56.6309 204.959C56.5645 204.998 56.4902 205.027 56.4082 205.047C56.3262 205.07 56.2441 205.082 56.1621 205.082C55.998 205.082 55.8789 205.064 55.8047 205.029C55.7344 204.994 55.6895 204.928 55.6699 204.83C55.5566 204.236 55.4453 203.709 55.3359 203.248C55.2305 202.787 55.125 202.4 55.0195 202.088C54.918 201.771 54.8164 201.531 54.7148 201.367C54.6133 201.203 54.5117 201.121 54.4102 201.121C54.3086 201.121 54.2129 201.186 54.123 201.314C54.0371 201.439 53.9531 201.637 53.8711 201.906C53.7891 202.176 53.709 202.518 53.6309 202.932C53.5566 203.346 53.4844 203.84 53.4141 204.414C53.3945 204.57 53.3164 204.695 53.1797 204.789C53.043 204.883 52.8691 204.93 52.6582 204.93C52.5176 204.93 52.4102 204.9 52.3359 204.842C52.2617 204.783 52.2207 204.703 52.2129 204.602C52.1777 203.789 52.1387 203.121 52.0957 202.598C52.0566 202.07 52.0195 201.648 51.9844 201.332C51.9492 201.012 51.9199 200.773 51.8965 200.617C51.873 200.461 51.8613 200.346 51.8613 200.271ZM60.5684 200.43C60.7559 200.43 60.9336 200.445 61.1016 200.477C61.2695 200.504 61.4219 200.535 61.5586 200.57C61.6953 200.602 61.8125 200.633 61.9102 200.664C62.0078 200.691 62.0781 200.705 62.1211 200.705C62.1562 200.705 62.1895 200.688 62.2207 200.652C62.252 200.613 62.291 200.572 62.3379 200.529C62.3848 200.486 62.4473 200.447 62.5254 200.412C62.6035 200.373 62.707 200.354 62.8359 200.354C62.9844 200.354 63.1016 200.393 63.1875 200.471C63.2734 200.545 63.3164 200.639 63.3164 200.752C63.3164 202.182 63.2676 203.396 63.1699 204.396C63.0723 205.393 62.9141 206.203 62.6953 206.828C62.4766 207.453 62.1934 207.906 61.8457 208.188C61.498 208.469 61.0762 208.609 60.5801 208.609C60.3535 208.609 60.1172 208.559 59.8711 208.457C59.6289 208.355 59.4062 208.225 59.2031 208.064C59 207.908 58.832 207.734 58.6992 207.543C58.5703 207.352 58.5059 207.168 58.5059 206.992C58.5059 206.934 58.5371 206.865 58.5996 206.787C58.6621 206.709 58.7383 206.633 58.8281 206.559C58.918 206.484 59.0117 206.422 59.1094 206.371C59.207 206.32 59.291 206.295 59.3613 206.295C59.4355 206.295 59.498 206.324 59.5488 206.383C59.5996 206.445 59.6465 206.521 59.6895 206.611C59.7363 206.701 59.7832 206.799 59.8301 206.904C59.877 207.014 59.9355 207.113 60.0059 207.203C60.0762 207.293 60.1621 207.367 60.2637 207.426C60.3652 207.488 60.4922 207.52 60.6445 207.52C61.4961 207.52 61.9961 206.219 62.1445 203.617C62.1445 203.5 62.1113 203.441 62.0449 203.441C61.9902 203.441 61.9473 203.469 61.916 203.523C61.5488 204.02 61.1191 204.393 60.627 204.643C60.1387 204.889 59.5957 205.012 58.998 205.012C58.7207 205.012 58.4648 204.971 58.2305 204.889C57.9961 204.803 57.793 204.686 57.6211 204.537C57.4531 204.385 57.3223 204.205 57.2285 203.998C57.1348 203.787 57.0879 203.557 57.0879 203.307C57.0879 203.061 57.1309 202.818 57.2168 202.58C57.3066 202.338 57.4297 202.111 57.5859 201.9C57.7461 201.686 57.9355 201.488 58.1543 201.309C58.373 201.129 58.6113 200.975 58.8691 200.846C59.127 200.713 59.3984 200.611 59.6836 200.541C59.9727 200.467 60.2676 200.43 60.5684 200.43ZM59.1797 203.934C59.7148 203.934 60.2051 203.766 60.6504 203.43C61.0957 203.09 61.4766 202.598 61.793 201.953C61.8008 201.93 61.8066 201.912 61.8105 201.9C61.8145 201.885 61.8164 201.869 61.8164 201.854C61.8164 201.814 61.7754 201.773 61.6934 201.73C61.6113 201.688 61.5039 201.65 61.3711 201.619C61.2383 201.588 61.0859 201.562 60.9141 201.543C60.7461 201.52 60.5762 201.508 60.4043 201.508C60.127 201.508 59.8594 201.555 59.6016 201.648C59.3438 201.742 59.1152 201.867 58.916 202.023C58.7168 202.18 58.5566 202.357 58.4355 202.557C58.3145 202.756 58.2539 202.963 58.2539 203.178C58.2539 203.408 58.3379 203.592 58.5059 203.729C58.6777 203.865 58.9023 203.934 59.1797 203.934Z" fill="#BFD230"/>
<circle cx="79.5" cy="224.5" r="15" fill="#FFEF77" stroke="#915B1F"/>
<circle cx="60.5" cy="232.5" r="15" fill="#FFEF77" stroke="#915B1F"/>
<path d="M63.9049 221.778C70.0668 225.145 72.3212 232.899 68.9331 239.099C65.5449 245.299 57.8016 247.589 51.6398 244.222C45.4781 240.855 43.2233 233.101 46.6111 226.901C49.9992 220.701 57.743 218.41 63.9049 221.778Z" fill="#FFEF77" stroke="#915B1F"/>
<circle cx="57.5" cy="232.5" r="10.5" fill="#FFCA37"/>
<rect x="46" y="232" width="23" height="2" fill="#FFEF77"/>
<rect x="49.1671" y="240.988" width="23" height="2" transform="rotate(-48.7601 49.1671 240.988)" fill="#FFEF77"/>
<rect x="63.7032" y="242.933" width="23" height="2" transform="rotate(-128.464 63.7032 242.933)" fill="#FFEF77"/>
<defs>
<linearGradient id="paint0_linear_9_46" x1="54" y1="24.8398" x2="54" y2="297" gradientUnits="userSpaceOnUse">
<stop offset="0.182489" stop-color="#FFDEE5"/>
<stop offset="0.774942" stop-color="#FFBEE5"/>
</linearGradient>
</defs>
</svg>
